<svg width="60" height="61" viewBox="0 0 60 61" fill="none" xmlns="http://www.w3.org/2000/svg">
<circle cx="30" cy="30.5" r="29" stroke="#FB4E4E" stroke-width="2"/>
<path d="M39.3746 31.2146L29.9996 40.4996L20.6246 31.2146C20.0063 30.6129 19.5192 29.8896 19.1941 29.0904C18.869 28.2912 18.7128 27.4333 18.7356 26.5708C18.7583 25.7083 18.9593 24.8598 19.3261 24.0788C19.6928 23.2978 20.2173 22.6012 20.8665 22.0328C21.5157 21.4645 22.2755 21.0367 23.0982 20.7765C23.9208 20.5162 24.7884 20.4291 25.6464 20.5206C26.5043 20.6121 27.334 20.8803 28.0832 21.3082C28.8325 21.7362 29.485 22.3146 29.9996 23.0071C30.5166 22.3196 31.1698 21.7463 31.9185 21.3229C32.6672 20.8995 33.4953 20.6352 34.3508 20.5465C35.2064 20.4578 36.071 20.5467 36.8906 20.8076C37.7102 21.0685 38.4672 21.4957 39.1141 22.0626C39.761 22.6294 40.2839 23.3237 40.6502 24.102C41.0164 24.8802 41.2181 25.7257 41.2425 26.5855C41.267 27.4453 41.1137 28.3009 40.7923 29.0987C40.4709 29.8965 39.9883 30.6194 39.3746 31.2221" stroke="white" stroke-width="2" stroke-linecap="round" stroke-linejoin="round"/>
<path d="M29.9998 23L25.8836 27.1163C25.6492 27.3507 25.5176 27.6685 25.5176 28C25.5176 28.3315 25.6492 28.6493 25.8836 28.8837L26.5623 29.5625C27.4248 30.425 28.8248 30.425 29.6873 29.5625L30.9373 28.3125C31.6832 27.5666 32.6949 27.1475 33.7498 27.1475C34.8047 27.1475 35.8164 27.5666 36.5623 28.3125L39.3748 31.125M30.6248 34.875L33.1248 37.375M33.7498 31.75L36.2498 34.25" stroke="white" stroke-width="2" stroke-linecap="round" stroke-linejoin="round"/>
</svg>
