<svg width="60" height="61" viewBox="0 0 60 61" fill="none" xmlns="http://www.w3.org/2000/svg">
<circle cx="30" cy="30.5" r="29" stroke="#FB4E4E" stroke-width="2"/>
<path d="M21.2496 24.4996C21.2496 23.7703 21.5393 23.0708 22.0551 22.5551C22.5708 22.0393 23.2703 21.7496 23.9996 21.7496H25.2496C25.9757 21.7492 26.6722 21.4616 27.1871 20.9496L28.0621 20.0746C28.3177 19.8176 28.6215 19.6137 28.9562 19.4745C29.2908 19.3353 29.6497 19.2637 30.0121 19.2637C30.3745 19.2637 30.7334 19.3353 31.068 19.4745C31.4027 19.6137 31.7065 19.8176 31.9621 20.0746L32.8371 20.9496C33.3521 21.4621 34.0496 21.7496 34.7746 21.7496H36.0246C36.7539 21.7496 37.4534 22.0393 37.9691 22.5551C38.4849 23.0708 38.7746 23.7703 38.7746 24.4996V25.7496C38.7746 26.4746 39.0621 27.1721 39.5746 27.6871L40.4496 28.5621C40.7066 28.8177 40.9105 29.1215 41.0497 29.4562C41.1889 29.7908 41.2605 30.1497 41.2605 30.5121C41.2605 30.8745 41.1889 31.2334 41.0497 31.568C40.9105 31.9027 40.7066 32.2065 40.4496 32.4621L39.5746 33.3371C39.0626 33.852 38.775 34.5485 38.7746 35.2746V36.5246C38.7746 37.2539 38.4849 37.9534 37.9691 38.4691C37.4534 38.9849 36.7539 39.2746 36.0246 39.2746H34.7746C34.0485 39.275 33.352 39.5626 32.8371 40.0746L31.9621 40.9496C31.7065 41.2066 31.4027 41.4105 31.068 41.5497C30.7334 41.6889 30.3745 41.7605 30.0121 41.7605C29.6497 41.7605 29.2908 41.6889 28.9562 41.5497C28.6215 41.4105 28.3177 41.2066 28.0621 40.9496L27.1871 40.0746C26.6722 39.5626 25.9757 39.275 25.2496 39.2746H23.9996C23.2703 39.2746 22.5708 38.9849 22.0551 38.4691C21.5393 37.9534 21.2496 37.2539 21.2496 36.5246V35.2746C21.2492 34.5485 20.9616 33.852 20.4496 33.3371L19.5746 32.4621C19.3176 32.2065 19.1137 31.9027 18.9745 31.568C18.8353 31.2334 18.7637 30.8745 18.7637 30.5121C18.7637 30.1497 18.8353 29.7908 18.9745 29.4562C19.1137 29.1215 19.3176 28.8177 19.5746 28.5621L20.4496 27.6871C20.9616 27.1722 21.2492 26.4757 21.2496 25.7496V24.4996Z" stroke="white" stroke-width="2" stroke-linecap="round" stroke-linejoin="round"/>
<path d="M26.25 30.5L28.75 33L33.75 28" stroke="white" stroke-width="2" stroke-linecap="round" stroke-linejoin="round"/>
</svg>
