<svg width="60" height="61" viewBox="0 0 60 61" fill="none" xmlns="http://www.w3.org/2000/svg">
<circle cx="30" cy="30.5" r="29" stroke="#FB4E4E" stroke-width="2"/>
<path d="M29.9995 19.25C32.9193 21.8332 36.7301 23.1782 40.6245 23C41.1915 24.9288 41.365 26.9518 41.1347 28.949C40.9044 30.9461 40.2749 32.8766 39.2838 34.6257C38.2927 36.3747 36.96 37.9067 35.3651 39.1306C33.7702 40.3545 31.9455 41.2453 29.9995 41.75C28.0536 41.2453 26.2289 40.3545 24.634 39.1306C23.0391 37.9067 21.7064 36.3747 20.7153 34.6257C19.7242 32.8766 19.0947 30.9461 18.8644 28.949C18.6341 26.9518 18.8076 24.9288 19.3745 23C23.269 23.1782 27.0798 21.8332 29.9995 19.25Z" stroke="white" stroke-width="2" stroke-linecap="round" stroke-linejoin="round"/>
<path d="M20 33L30 29.25L40 33" stroke="white" stroke-width="2" stroke-linecap="round" stroke-linejoin="round"/>
</svg>
