<svg width="454" height="56" viewBox="0 0 454 56" fill="none" xmlns="http://www.w3.org/2000/svg">
<path d="M416.748 25.3358L334.791 20.726C334.683 21.6815 335.258 21.7597 335.88 21.7988C339.093 22.0056 342.313 22.19 345.519 22.4191C349.077 22.6761 352.628 22.9778 356.18 23.2572C357.282 23.341 358.385 23.369 359.488 23.4472C360.118 23.4727 360.735 23.6119 361.294 23.8551C346.263 24.2407 331.334 22.6649 316.29 22.5755L318.793 23.1734C319.009 23.9725 318.549 24.101 317.839 24.0954C315.039 24.0563 312.238 24.0954 309.438 24.0116C305.826 23.9333 302.22 23.7378 298.615 23.721C296.788 23.721 294.969 24.1177 293.142 24.101C292.121 24.101 291.113 23.6204 290.078 23.3466C289.808 23.274 289.483 23.0281 289.307 23.0952C287.63 23.7098 286.013 22.9108 284.356 23.0002C282.698 23.0896 280.973 22.9108 279.282 22.9331C277.855 22.9331 276.434 23.5757 274.994 22.9611C274.811 22.8773 274.635 22.7823 274.256 22.5923L276.076 21.5027C273.505 20.8825 271.273 21.1786 268.96 21.5586L273.018 22.799L272.45 24.3748L274.189 24.7156C274.189 24.7883 274.189 24.8609 274.189 24.9335L271.693 25.1906C271.693 25.347 271.693 25.4979 271.693 25.6543C273.167 25.8276 274.635 25.9952 276.103 26.1796C277.402 26.3416 278.687 26.5651 279.986 26.6881C280.98 26.7775 282.015 26.7439 282.996 26.7886C284.45 26.8557 285.898 26.9842 287.352 27.0177C291.032 27.1016 294.712 27.0904 298.385 27.2245C302.058 27.3586 305.738 27.6268 309.411 27.8671C317.772 28.4258 326.139 28.9846 334.507 29.5099C343.76 30.0686 353.014 30.6274 362.241 31.1862C372.232 31.8064 382.223 32.4099 392.207 33.1139C397.781 33.5051 403.334 34.0806 408.895 34.5891C409.453 34.6639 410.006 34.7627 410.552 34.8852C410.41 35.1422 410.356 35.3266 410.295 35.3266C407.731 35.3266 405.161 35.3713 402.597 35.2875C400.394 35.2348 398.197 35.0781 396.015 34.8182C387.941 33.7609 379.794 33.1319 371.623 32.9351C367.889 32.8513 364.182 32.5272 360.441 32.3763C359.386 32.3316 358.27 32.7116 357.262 32.544C356.031 32.3372 354.861 32.7116 353.521 32.2869C351.837 31.7282 349.781 32.002 347.887 31.9405C339.093 31.6388 330.252 31.3817 321.438 31.0297C316.067 30.8174 310.716 30.3704 305.345 30.2139C302.64 30.1413 299.968 30.4933 297.282 30.6386C296.694 30.6665 296.099 30.6386 295.51 30.6386C289.99 30.6386 284.498 30.2027 278.991 29.996C274.804 29.8395 270.61 29.996 266.416 29.996C262.507 29.996 258.597 29.996 254.694 29.996C249.465 29.996 244.243 29.9457 239.021 29.9345C238.318 29.9179 237.628 30.0883 237.052 30.4207C237.423 30.5954 237.825 30.7216 238.243 30.795C243.526 31.0185 248.815 31.2085 254.098 31.4097L268.98 31.9684C273.208 32.1361 277.436 32.3316 281.663 32.4993C288.062 32.7563 294.462 33.0189 300.861 33.2369C302.822 33.3039 304.804 33.1419 306.759 33.2369C309.046 33.3598 311.305 33.6615 313.578 33.8906C313.578 34.0135 313.578 34.1421 313.578 34.265L302.755 33.8627C302.755 33.9297 302.755 33.9912 302.755 34.0582C303.812 34.4008 304.897 34.6827 306.002 34.902C307.156 35.0122 308.317 35.0608 309.478 35.0473L313.233 35.1422C314.41 35.1758 315.587 35.2596 316.764 35.2261C317.941 35.1925 319.199 35.8407 320.552 34.7735L317.772 34.455C318.008 34.1979 318.117 33.9744 318.232 33.9688C322.602 33.741 326.99 33.8777 331.327 34.3767C333.708 34.6617 336.062 35.2093 338.477 34.8405C341.711 35.796 345.188 35.1758 348.698 36.1536C341.542 36.2542 334.676 35.2987 327.783 35.187C327.783 35.3546 327.736 35.5222 327.708 35.6898L332.667 36.3157C332.667 36.4051 332.667 36.5001 332.667 36.595L316.168 35.8128C316.967 36.7906 317.832 36.6062 318.536 36.6565C324.241 37.0775 329.947 37.4723 335.657 37.8411C341.46 38.2099 347.264 38.5396 353.075 38.8581C357.925 39.1207 362.782 39.3386 367.632 39.5956C368.292 39.6343 368.909 39.8803 369.357 40.2829C368.722 40.3517 368.083 40.3871 367.442 40.3891C364.439 40.2718 361.442 40.1376 358.446 39.97C355.449 39.8024 352.283 39.5845 349.206 39.4113C345.769 39.2157 342.326 39.048 338.897 38.8525C335.609 38.6569 332.322 38.3943 329.034 38.2155C318.597 37.6567 308.153 37.0979 297.681 36.9582C292.317 36.8912 286.96 36.5951 281.596 36.4498C279.221 36.3883 276.861 36.4498 274.337 36.4498C274.899 37.1035 275.69 36.9471 276.367 36.9694C279.891 37.0868 283.415 37.1371 286.94 37.2488C292.534 37.4276 298.128 37.5953 303.715 37.8076C310.931 38.1168 318.132 38.4576 325.321 38.8301C329.061 39.0201 332.802 39.2883 336.536 39.5342C336.962 39.5621 337.557 39.5342 337.781 39.7521C338.802 40.7188 340.168 40.5958 341.467 40.6741C343.375 40.7858 345.289 40.8417 347.197 40.9479C347.433 40.9479 347.65 41.1099 348.238 41.339C346.108 41.9928 344.302 41.7022 342.536 41.6631C340.351 41.6184 338.173 41.4228 335.988 41.3893C331.517 41.3222 327.032 41.3893 322.561 41.2664C318.827 41.1602 315.12 40.8026 311.372 40.6238C306.637 40.3947 301.902 40.1879 297.167 40.065C293.941 39.9756 290.714 40.065 287.481 40.0147C284.464 39.9756 281.447 39.8583 278.437 39.7968C275.636 39.7409 272.836 39.7242 270.035 39.6571C268.067 39.6124 266.092 39.5845 264.137 39.4224C261.248 39.1821 258.421 39.4951 255.58 39.7744C255.006 39.8668 254.415 39.8668 253.841 39.7744C250.534 38.9698 247.118 39.1207 243.749 39.0313C240.955 38.9587 238.162 39.0592 235.368 39.1039C234.682 39.1068 234.009 39.2549 233.413 39.5342C233.762 39.6524 234.119 39.755 234.482 39.8415C235.753 40.0985 237.025 40.35 238.304 40.5679C238.802 40.6377 239.307 40.6713 239.812 40.6685L251.514 40.9535C251.663 40.9618 251.812 40.9618 251.961 40.9535C255.857 40.5176 259.686 41.3669 263.555 41.4675C266.998 41.5569 270.414 42.0822 273.857 42.3113C276.482 42.4789 279.127 42.4789 281.765 42.5515C285.742 42.6689 289.72 42.7583 293.69 42.9092C303.918 43.3003 314.146 43.6914 324.374 44.1496C328.432 44.3284 332.491 44.7084 336.495 44.9878C336.746 44.9878 336.996 45.1051 337.28 45.513C336.538 45.6424 335.785 45.7283 335.028 45.7701C332.68 45.7701 330.326 45.8148 327.986 45.6974C325.645 45.5801 323.136 45.3454 320.721 45.0772C315.413 44.4477 310.046 44.2326 304.689 44.4346C303.052 44.5072 301.442 44.0546 299.832 44.4346C297.127 43.4456 294.245 44.0546 291.445 43.8758C288.644 43.697 285.85 43.7696 283.057 43.7752C277.862 43.7752 272.676 43.6914 267.499 43.5238C266.667 43.5238 265.828 43.5629 264.793 43.5909C265.348 44.5855 266.193 44.4067 266.822 44.4402C269.528 44.5687 272.274 44.619 274.994 44.7196C284.565 45.0828 294.137 45.4851 303.715 45.8036C305.19 45.8539 305.907 46.625 306.59 47.2508L313.727 47.899C312.238 48.955 310.831 48.2398 309.506 48.5248C309.451 48.8209 309.397 49.1562 309.323 49.6423L258.238 48.8489L257.765 49.782C258.015 49.8491 258.204 49.9329 258.238 49.9049C258.915 49.2903 259.726 49.5026 260.518 49.5529C265.409 49.8658 270.306 50.1787 275.197 50.5196C277.375 50.6705 279.539 50.9498 281.724 51.0784C282.644 51.1287 283.584 50.8604 284.518 50.8604C287.609 50.8604 290.701 50.9051 293.792 50.9331C293.864 50.9275 293.936 50.9275 294.008 50.9331C295.51 51.1845 296.876 50.2625 298.595 50.961C299.947 51.5198 301.909 51.1566 303.6 51.2125C305.291 51.2683 306.834 51.3298 308.45 51.3913C310.067 51.4527 311.731 51.3242 313.253 51.6595C314.281 51.8886 315.384 51.5086 316.459 52.2518C317.19 52.7491 318.786 52.7603 319.902 51.95C320.403 51.5868 321.255 50.9666 321.654 52.1679C321.654 52.235 322.033 52.3132 322.067 52.2741C323.17 51.1566 323.941 52.4753 325.057 52.5423L326.004 51.2348C327.491 51.3619 328.96 51.6108 330.387 51.978C332.261 52.5367 334.365 52.5926 336.38 52.7938C337.733 52.9223 339.14 52.9 340.52 52.9838C342.062 53.0843 343.605 53.2352 345.147 53.3581C350.18 53.753 355.21 54.1497 360.238 54.5483C362.484 54.7271 364.723 54.9227 366.969 55.2021C365.366 55.2021 363.763 55.2524 362.166 55.2021C356.489 54.986 350.816 54.7458 345.147 54.4813C338.68 54.1851 332.214 53.7828 325.74 53.5649C319.124 53.3358 312.495 53.2911 305.873 53.1402C301.605 53.0396 297.343 52.872 293.075 52.7658C289.99 52.6876 286.899 52.6653 283.808 52.6038C274.162 52.425 264.522 52.1903 254.876 52.045C250.026 51.9836 245.169 52.0953 240.313 52.1568C233.988 52.235 227.663 52.3523 221.372 52.4306C215.298 52.5014 209.226 52.5535 203.156 52.587C197.109 52.6206 191.068 52.587 185.021 52.6206C174.779 52.6653 164.538 52.6876 154.297 52.7994C149.656 52.8497 145.03 53.1346 140.389 53.2296C133.174 53.3712 125.958 53.4699 118.743 53.5258C109.753 53.6152 100.763 53.6096 91.7803 53.7381C85.9765 53.8163 80.1794 54.1125 74.3755 54.2298C67.5368 54.3639 60.698 54.5204 53.8524 54.4701C45.5322 54.403 37.2053 54.1684 28.8851 53.9113C24.15 53.7772 19.4623 53.4867 14.7543 53.2799C12.3394 53.1793 10.0733 53.4475 8.12518 54.8221C7.58403 55.2077 6.77231 55.3027 5.88617 55.5764C5.7103 54.241 7.3608 54.2466 7.59079 53.1737C5.35338 52.8865 3.09037 52.7575 0.826406 52.7882C-2.75872 52.9391 -6.35737 53.0285 -9.91544 53.7158C-12.2356 54.1628 -14.7046 54.0957 -17.478 54.2745L-16.071 53.4252L-19 51.7489C-17.9448 51.2404 -16.9707 50.8828 -16.7813 49.8379C-16.7001 49.3909 -16.0507 48.9327 -15.5231 48.6477C-14.1296 47.8822 -12.9459 47.0552 -12.9797 45.5074C-12.9797 45.3733 -12.7226 45.2336 -12.6279 45.1442L-15.2728 41.7357L-11.938 40.5847C-11.9786 38.9084 -11.478 37.1873 -14.4543 37.0365C-13.3653 35.8351 -15.2931 34.4494 -13.3517 33.3095L-16.5716 32.3261C-16.3587 31.9472 -16.0782 31.5969 -15.7396 31.2867C-15.4236 31.1303 -15.1917 30.8802 -15.0911 30.5874C-14.9906 30.2946 -15.0289 29.9812 -15.1984 29.711C-15.3472 29.3813 -15.0158 28.9231 -15.0022 28.5264C-14.9284 28.1349 -14.9893 27.7341 -15.1781 27.3698C-16.1793 26.1517 -16.1792 25.7717 -14.8737 24.9112C-14.5896 24.7268 -14.1635 24.6374 -13.9673 24.4139C-13.6426 24.0395 -13.1014 23.4025 -13.257 23.2013C-14.1161 22.0838 -13.4058 20.8378 -13.9335 19.737C-14.2582 19.0888 -14.5693 18.435 -14.9481 17.6695C-14.7317 16.9375 -13.4667 16.2055 -14.5355 15.1327C-14.7249 14.9427 -14.2379 14.2666 -14.0147 13.8364C-13.7035 13.2273 -13.3382 12.6294 -13 12.0427C-12.6618 11.456 -12.6821 10.8861 -13.6426 10.7408C-13.3163 9.8498 -12.7778 9.02162 -12.0588 8.30485C-11.3398 7.58808 -10.4547 6.99717 -9.45544 6.56678C-8.07313 5.97938 -6.93176 5.06766 -6.17471 3.94615C-5.16006 2.50452 -3.54338 1.91782 -1.63582 1.75019C0.779066 1.53785 3.18718 1.28082 5.60883 1.13554C12.725 0.71646 19.814 0.180041 26.9708 0.0179979C31.442 -0.093756 35.9403 0.342084 40.4251 0.576767C43.4217 0.71646 46.4251 0.917611 49.4285 1.00701C52.8107 1.11318 56.1929 1.19142 59.5751 1.15789C64.4319 1.1076 69.2887 0.89526 74.1523 0.867321C77.751 0.867321 81.3767 0.554412 84.928 1.39257C85.7194 1.54328 86.5313 1.60716 87.3429 1.58255C95.7442 1.72783 104.152 1.85076 112.554 2.00162C117.465 2.08544 122.389 2.44864 127.28 2.23072C130.364 2.09662 133.422 2.64421 136.452 2.26425C139.314 1.90105 142.094 2.20837 144.908 2.45422C146.536 2.6549 148.19 2.67746 149.825 2.52129C150.661 2.41458 151.481 2.23861 152.274 1.99605C153.167 1.71107 154.303 1.99604 155.386 2.0631C156.468 2.13015 157.577 2.19719 158.68 2.1916C159.783 2.18601 160.831 2.00721 161.9 2.04074C162.827 2.04074 163.733 2.31453 164.66 2.40394C165.279 2.43207 165.9 2.43207 166.52 2.40394C166.94 2.69262 167.419 2.91773 167.934 3.06887C168.075 3.10068 168.223 3.10876 168.368 3.09266C168.513 3.07656 168.653 3.0366 168.779 2.97514C168.905 2.91367 169.015 2.83197 169.102 2.73482C169.189 2.63767 169.252 2.52706 169.287 2.40953C169.598 1.59373 170.295 1.49874 171.214 1.85076C175.036 3.27562 179.142 2.61628 183.147 3.11359L183.762 1.76695C184.161 1.86753 184.716 1.89545 184.784 2.05191C185.562 4.02437 187.591 3.20858 189.127 3.37621C189.742 3.44326 190.405 3.18621 191.426 3.01299L189.647 2.28101C191.136 1.72224 191.677 1.86753 193.185 3.21975L194.125 2.33689C194.274 2.33689 194.45 2.25866 194.552 2.30336C197.548 3.66117 200.842 2.82301 203.974 3.18621C205.424 3.37764 206.896 3.41894 208.358 3.30914C209.305 3.21974 209.9 4.49374 210.894 3.61648C212.836 4.5608 214.912 3.61647 216.982 3.92379C218.795 4.21994 220.716 4.0132 222.61 4.19201C225.201 4.44345 227.853 4.26464 230.47 4.30934C235.882 4.39875 241.327 4.53844 246.759 4.62225C252.34 4.70607 257.927 4.68372 263.508 4.81783C267.255 4.91282 270.996 5.23132 274.75 5.3766C277.104 5.47717 279.485 5.48835 281.819 5.53864C283.571 5.57217 285.33 5.58892 287.088 5.63363C289.429 5.69509 291.769 5.82361 294.11 5.8292C294.798 5.7312 295.462 5.54254 296.078 5.27043C296.193 6.07506 297.14 5.91302 297.965 5.94096C300.901 6.02477 303.837 6.0527 306.759 6.19239C313.287 6.50531 319.808 6.75116 326.315 7.49991C331.848 8.1425 337.483 8.17603 343.07 8.52247C346.378 8.72363 349.672 9.00302 352.973 9.26005C353.406 9.29358 353.988 9.26005 354.232 9.48355C355.984 11.0313 358.29 10.4782 360.408 10.7128C361.246 10.7488 362.067 10.9236 362.822 11.2269C362.647 11.2952 362.46 11.3422 362.268 11.3666C354.38 11.3666 346.493 11.4616 338.633 10.6905C335.501 10.2889 332.324 10.1839 329.163 10.3776C323.873 10.8693 318.583 10.182 313.26 10.9364C313.896 11.0314 314.531 11.1654 315.174 11.2102C319.801 11.5342 324.434 11.8248 329.055 12.1712C330.061 12.2284 331.049 12.417 331.984 12.73C332.54 12.958 333.148 13.0881 333.769 13.1122C334.389 13.1362 335.009 13.0537 335.589 12.8697C336.029 12.73 336.692 13.1714 337.233 13.1323C343.043 12.7468 348.604 14.4789 354.394 14.5013C357.959 14.5013 361.53 15.0601 365.095 15.3786L365.156 15.3283C364.868 15.5539 364.524 15.7255 364.148 15.8316C363.772 15.9377 363.373 15.9756 362.978 15.9429C361.246 15.7529 359.481 15.7418 357.729 15.6915C356.595 15.638 355.457 15.7113 354.347 15.9094C358.75 16.809 363.303 16.5241 367.693 17.379C350.417 16.5743 333.194 15.4009 315.918 14.5125C315.918 14.6689 315.884 14.831 315.864 14.9874L327.215 15.8479L328.026 17.2058C327.837 17.284 327.661 17.4293 327.492 17.4237C324.333 17.3231 321.174 17.2057 318.022 17.094C316.412 17.0325 314.802 16.9655 313.192 16.9152C303.289 16.5967 293.386 16.2503 283.483 15.9765C279.695 15.8703 275.907 15.9764 272.119 15.8815C268.899 15.82 265.686 15.6021 262.459 15.563C256.689 15.4847 250.919 15.4736 245.142 15.4624C236.755 15.4624 228.36 15.4624 219.965 15.4624C212.822 15.4624 205.679 15.3339 198.543 15.3339C196.883 15.3502 195.241 15.6113 193.693 16.105C195.769 16.1497 197.846 16.2335 199.916 16.2335C207.58 16.2335 215.237 16.1441 222.915 16.2335C233.575 16.3508 244.229 16.5911 254.89 16.7923C266.146 16.9934 277.409 17.1555 288.664 17.4069C293.893 17.5242 299.109 17.8148 304.338 18.0048C307.645 18.1221 310.967 18.1445 314.274 18.3009C320.308 18.5915 326.335 18.9379 332.369 19.2788C340.599 19.737 348.829 20.2063 357.059 20.6869C360.59 20.888 364.114 21.1395 367.645 21.3462C372.13 21.6088 376.622 21.7821 381.1 22.1062C386.159 22.4694 391.199 22.9723 396.252 23.3857C399.83 23.6819 403.415 23.9166 407.001 24.1959C409.923 24.425 412.838 24.6597 415.754 24.9391C416.119 24.9726 416.43 25.28 416.795 25.4588L416.748 25.3358ZM272.917 33.5777L271.997 33.153C271.95 33.3542 271.909 33.5609 271.868 33.7621L272.971 33.5162C273.648 33.8683 274.277 34.2706 275.075 33.6503C274.331 32.7731 273.614 33.6783 272.917 33.5777ZM227.555 30.5771C228.617 30.6777 229.72 30.9682 230.727 30.823C231.735 30.6777 232.906 31.1973 233.724 29.9625C231.891 29.9625 230.301 29.9233 228.712 29.996C228.319 29.996 227.954 30.3871 227.562 30.5883C226.737 30.2977 225.918 29.616 224.755 30.7112L227.555 30.5771ZM295.997 19.4408C296.673 19.7202 296.876 19.9046 297.106 19.9046C298.294 19.8266 299.487 19.7986 300.678 19.8208C303.573 20.0443 306.448 20.4522 309.35 20.6422C311.609 20.7875 313.909 20.5975 316.168 20.7819C318.428 20.9663 320.626 20.2231 322.879 20.7819C323.871 20.9827 324.888 21.0914 325.909 21.106C326.467 21.0671 327.018 20.9791 327.553 20.8433C325.199 19.9884 316.053 19.4129 300.739 19.0944C299.325 19.0497 297.844 18.7144 295.997 19.4632V19.4408ZM275.589 9.27681C275.122 9.08124 274.804 8.81303 274.54 8.85214C271.835 9.23769 269.203 8.42747 266.511 8.461C264.083 8.48894 261.647 8.41071 259.219 8.37719C258.84 8.34164 258.456 8.38429 258.102 8.50131C257.748 8.61833 257.435 8.80606 257.19 9.04772C257.339 9.18182 257.393 9.26004 257.447 9.26563C262.04 9.47796 266.633 9.73499 271.233 9.87468C272.592 9.93615 274.114 10.2267 275.589 9.29915V9.27681ZM245.217 48.6645C245.67 49.0221 245.893 49.3629 246.164 49.3853C249.066 49.62 251.961 49.8379 254.863 49.9832C255.668 50.0223 256.074 49.5976 255.539 48.6645H245.217ZM271.07 33.3989C270.508 33.2493 269.931 33.1427 269.345 33.0804C265.963 33.0133 262.581 32.9798 259.239 32.9463C259.039 32.9749 258.845 33.0296 258.664 33.1083C258.739 33.2592 258.813 33.4045 258.881 33.5553C262.182 33.7341 265.476 33.9186 268.777 34.075C269.357 34.0927 269.938 34.0571 270.509 33.9688C270.664 33.9465 270.773 33.7118 271.07 33.3989ZM262.439 18.3792C263.609 19.4185 265.084 19.1391 266.498 19.2676C267.911 19.3961 269.291 19.5917 270.664 19.7481C271.192 19.005 271.253 18.4239 270.123 18.3959C267.546 18.3456 264.982 18.3792 262.439 18.3792ZM228.056 18.1557C229.679 19.1223 231.438 18.4071 232.973 18.6362C234.529 18.7603 236.095 18.7752 237.654 18.6809C235.841 17.7701 230.383 17.5857 228.056 18.1557ZM265.814 36.2151C263.237 35.2428 261.018 35.4105 258.624 36.0251C260.119 36.69 263.217 36.7962 265.814 36.2151ZM251.981 23.7657C251.308 23.3807 250.523 23.1522 249.706 23.104C248.89 23.0558 248.073 23.1898 247.341 23.4919C248.369 24.4474 250.155 24.5536 251.981 23.7657ZM290.538 34.2147C288.989 33.4436 286.662 33.4883 285.445 34.2147H290.538ZM228.198 38.9922C229.841 39.6012 230.227 39.5956 231.871 38.9922H228.198ZM249.343 18.0383V18.6306L252.84 18.8653C252.84 18.6921 252.84 18.5244 252.894 18.3512L249.343 18.0383ZM328.223 21.1451C329.028 21.2959 329.508 21.4021 329.988 21.4524C329.988 21.4524 330.252 20.9998 330.157 20.8936C329.717 20.3013 329.183 20.2678 328.209 21.1451H328.223ZM296.633 34.5555L298.71 34.0582C297.641 33.7621 297.106 33.6224 296.619 34.5499L296.633 34.5555ZM272.795 36.5448C272.795 36.4721 272.795 36.4051 272.795 36.338H270.489V36.5448H272.795ZM349.131 15.5071C349.131 15.5741 349.131 15.6412 349.131 15.7082H350.822C350.822 15.6412 350.822 15.5741 350.822 15.5071H349.131ZM254.105 24.52C254.01 23.8607 253.591 23.6372 252.786 23.9166L254.105 24.52ZM266.694 36.2542C266.694 36.3883 266.755 36.5224 266.782 36.6565C267.323 36.3604 268.047 36.8297 268.872 36.0978L266.694 36.2542ZM224.166 30.3424C223.835 30.2251 223.652 30.1021 223.49 30.1133C223.327 30.1245 223.212 30.2921 223.077 30.3871C223.239 30.4654 223.402 30.5994 223.571 30.605C223.74 30.6106 223.875 30.4989 224.166 30.3592V30.3424Z" fill="#FB4E4E"/>
<path d="M421.914 34.1364L367.346 30.3088C368.259 28.8728 370.369 30.3926 371.032 28.9622C371.601 29.2862 372.013 29.5209 372.791 29.9456L373.413 29.0851C374.469 28.9566 375.301 30.0853 376.505 29.4818C376.593 29.4371 377.053 29.968 377.398 30.1635C378.548 30.8173 379.21 30.6273 379.833 29.4036C382.187 29.6327 384.568 29.845 386.989 30.1188C387.585 30.1859 388.119 30.5714 388.721 30.6441C389.851 30.7782 391.001 30.8005 392.144 30.8564C392.59 30.8564 393.044 30.8564 393.497 30.8564C393.95 30.8564 394.248 31.0967 394.552 31.0184C396.581 30.51 398.462 31.0855 400.403 31.3425C403.074 31.7814 405.805 31.9205 408.521 31.756C408.948 31.6748 409.392 31.6748 409.819 31.756C413.675 33.0188 417.896 33.0524 421.914 34.1364Z" fill="#FB4E4E"/>
<path d="M314.869 46.513C317.264 46.513 319.658 46.4404 322.046 46.513C324.319 46.608 326.585 46.8818 328.858 47.0718C329.744 47.1388 330.637 47.1053 331.178 47.8596C331.236 47.9351 331.313 47.9992 331.405 48.0474C331.496 48.0957 331.598 48.127 331.706 48.139C333.992 47.9993 336.143 49.1113 338.47 48.614C338.81 48.6033 339.149 48.6335 339.478 48.7034C339.586 49.7762 339.945 50.7485 341.893 50.6032C341.514 50.8882 341.365 51.0893 341.216 51.0782C336.481 50.7485 331.645 51.0279 326.903 50.3015C324.885 49.9705 322.943 49.3804 321.147 48.5525C320.172 48.1223 319.313 47.435 318.292 47.1835C317.171 46.9682 316.026 46.8465 314.876 46.8203C314.889 46.7142 314.876 46.6136 314.869 46.513ZM339.221 50.0053C339.167 49.8097 339.119 49.6198 339.072 49.4465C338.7 49.5695 338.328 49.6868 337.97 49.8265C337.971 49.9294 338.001 50.0307 338.057 50.1226C338.436 50.0891 338.822 50.0388 339.214 50.0053H339.221Z" fill="#FB4E4E"/>
<path d="M366.048 30.2975C364.959 30.2975 363.87 30.3478 362.788 30.2975C353.317 29.7685 343.847 29.2209 334.377 28.6547C333.204 28.6118 332.04 28.46 330.907 28.2021C328.952 27.7048 327.031 27.2075 324.941 27.3863C324.569 27.4198 324.163 27.1572 323.777 27.0287L323.859 26.6543C324.236 26.5448 324.63 26.479 325.029 26.4587C327.795 26.6375 330.555 26.9002 333.322 27.0175C336.526 27.1578 339.716 27.4638 342.873 27.9339C343.428 28.0233 343.969 28.1574 344.517 28.2636C344.862 28.3306 345.193 28.3697 345.565 28.4424C346.093 28.5541 346.052 27.1293 346.999 28.1071C347.189 28.3027 348.102 28.0736 348.664 27.9674C349.301 27.8239 349.97 27.8036 350.619 27.9083C351.268 28.0129 351.879 28.2397 352.404 28.5709C353.71 29.3643 355.191 28.7776 356.598 28.7329C356.835 28.7329 357.193 28.4256 357.275 28.4871C358.986 29.6046 360.961 29.0961 362.855 29.2023C363.965 29.3398 365.057 29.5643 366.116 29.8728C366.116 30.0237 366.082 30.1578 366.048 30.2975Z" fill="#FB4E4E"/>
<path d="M370.506 42.6689L348.82 41.7301L348.779 41.4005C349.12 41.27 349.487 41.1905 349.862 41.1658C353.122 41.4787 356.416 41.2943 359.69 41.5625C362.112 41.7637 364.594 41.4899 367.036 41.596C368.24 41.7408 369.423 41.9861 370.567 42.328L370.506 42.6689Z" fill="#FB4E4E"/>
<path d="M397.159 17.8538C404.072 17.8538 410.891 18.5858 417.709 19.4295C415.43 19.7703 413.231 19.1725 410.986 19.0551C408.74 18.9378 406.298 18.8372 403.978 18.5913C401.657 18.3455 399.371 18.4908 397.159 17.8538Z" fill="#FB4E4E"/>
<path d="M322.593 42.3281C323.73 42.1711 324.883 42.1018 326.036 42.1214C329.621 42.4287 333.186 42.8646 336.757 43.2389L336.697 43.7586C334.315 43.6357 331.961 43.5407 329.56 43.3674C327.159 43.1942 324.764 43.5965 322.593 42.3281Z" fill="#FB4E4E"/>
<path d="M437.082 40.6183C432.103 40.5904 427.104 40.6183 422.2 39.8025C427.182 39.6289 432.172 39.9025 437.082 40.6183Z" fill="#FB4E4E"/>
<path d="M376.627 24.8778C377.303 24.4364 377.54 24.157 377.73 24.1738C380.814 24.5091 383.892 24.8723 386.943 25.431C383.49 25.634 380.019 25.4479 376.627 24.8778Z" fill="#FB4E4E"/>
<path d="M312.332 25.8496C308.619 26.0004 304.892 26.738 301.205 25.2405L312.332 25.8496Z" fill="#FB4E4E"/>
<path d="M416.709 25.3749C417.04 25.2574 417.392 25.1839 417.751 25.157C421.39 25.4196 425.016 25.7157 428.628 26.1851C424.645 26.255 420.665 25.9702 416.756 25.3358L416.709 25.3749Z" fill="#FB4E4E"/>
<path d="M343.45 17.6193C343.308 17.8875 343.173 18.3233 343.078 18.3177C340.65 18.1724 338.174 18.1613 335.948 17.2002L336.05 16.7532C337.247 16.9432 338.438 17.1723 339.642 17.3119C340.846 17.4516 342.023 17.5187 343.45 17.6193Z" fill="#FB4E4E"/>
<path d="M378.23 43.1828C378.23 42.0932 378.995 42.0932 379.712 42.177C381.506 42.3603 383.272 42.6974 384.981 43.1828H378.23Z" fill="#FB4E4E"/>
<path d="M240.759 3.77282C240.636 3.51006 240.565 3.23273 240.549 2.95143C240.616 2.63293 240.772 2.10209 240.982 2.06857C241.222 2.02868 241.47 2.02993 241.709 2.07222C241.949 2.1145 242.176 2.19694 242.375 2.31443C242.828 2.75828 243.21 3.24844 243.512 3.77282H240.759Z" fill="#FB4E4E"/>
<path d="M381.444 40.8417C379.192 40.8082 376.939 40.7802 374.781 39.9812L381.492 40.2718C381.478 40.445 381.458 40.635 381.444 40.8417Z" fill="#FB4E4E"/>
<path d="M365.055 15.3285L371.643 15.8873C371.643 15.9599 371.677 16.0381 371.691 16.1108C371.357 16.2389 371.001 16.3219 370.635 16.3566C369.113 16.3119 367.591 16.2169 366.069 16.1331C365.393 16.094 364.899 15.9487 365.116 15.2559L365.055 15.3285Z" fill="#FB4E4E"/>
<path d="M391.422 17.6806L383.589 17.1218C386.202 16.5788 388.96 16.7755 391.422 17.6806Z" fill="#FB4E4E"/>
<path d="M438.692 40.5286L443.785 41.0538C442.997 41.4226 442.107 41.6164 441.201 41.6164C440.295 41.6164 439.405 41.4226 438.617 41.0538C438.644 40.8694 438.671 40.7018 438.692 40.5286Z" fill="#FB4E4E"/>
<path d="M448.365 41.2554L454 41.8644C452.532 42.3953 450.327 42.1718 448.365 41.2554Z" fill="#FB4E4E"/>
<path d="M377.677 16.8596L373.118 16.4685C373.118 16.3344 373.118 16.2003 373.166 16.0662L377.718 16.2785L377.677 16.8596Z" fill="#FB4E4E"/>
<path d="M330.549 17.4407L328.892 17.5245C328.757 16.9657 328.635 16.4796 328.473 15.8091C328.969 15.8931 329.427 16.0906 329.794 16.3791C330.161 16.6676 330.423 17.0354 330.549 17.4407Z" fill="#FB4E4E"/>
<path d="M249.816 2.62751C251.169 2.34812 251.643 3.02425 251.974 3.98533H250.249C250.1 3.52155 249.965 3.08011 249.816 2.62751Z" fill="#FB4E4E"/>
<path d="M375.763 24.7103C374.682 24.9704 373.526 24.9211 372.482 24.5706C372.482 24.4086 372.516 24.2465 372.537 24.0845L375.777 24.2633C375.77 24.4141 375.763 24.565 375.763 24.7103Z" fill="#FB4E4E"/>
<path d="M382.114 55.5991C383.467 54.6827 383.616 54.6771 385.3 55.5991H382.114Z" fill="#FB4E4E"/>
<path d="M268 4.34278H265.111C266.2 3.4711 267.1 3.84549 267.966 3.93489C267.979 4.069 267.986 4.20309 268 4.34278Z" fill="#FB4E4E"/>
<path d="M386.064 38.2375L385.679 38.8745L384.096 37.9469C384.826 37.5279 384.826 37.5279 386.064 38.2375Z" fill="#FB4E4E"/>
<path d="M278.267 24.8108L282.271 24.9677V25.0967H278.26C278.26 25.0014 278.267 24.9061 278.267 24.8108Z" fill="#FB4E4E"/>
<path d="M411.845 40.769L414.889 41.1211C413.861 41.1714 412.812 41.4005 411.845 40.769Z" fill="#FB4E4E"/>
<path d="M389.176 19.0052L386.402 18.5973C386.402 18.5079 386.402 18.4185 386.402 18.3347L389.284 18.5471L389.176 19.0052Z" fill="#FB4E4E"/>
<path d="M352.602 25.0562H355.307C354.137 25.6205 354.137 25.6205 352.602 25.0562Z" fill="#FB4E4E"/>
<path d="M414.922 39.2715L417.803 39.6291V39.8135L414.895 39.6012C414.895 39.4894 414.908 39.3777 414.922 39.2715Z" fill="#FB4E4E"/>
<path d="M342.15 45.4851H345.208C343.814 45.8158 343.814 45.8158 342.15 45.4851Z" fill="#FB4E4E"/>
<path d="M358.19 46.597L355.274 46.4182C355.274 46.3623 355.274 46.3064 355.274 46.2505C355.734 46.2114 356.194 46.1556 356.627 46.1388C357.06 46.122 357.689 46.1388 358.224 46.1388C358.224 46.2897 358.203 46.4293 358.19 46.597Z" fill="#FB4E4E"/>
<path d="M446.222 15.0491L448.928 15.3787L448.847 15.7419L446.202 15.3005C446.188 15.2167 446.208 15.1385 446.222 15.0491Z" fill="#FB4E4E"/>
<path d="M425.556 20.3796L424.115 20.307V19.9829H425.515C425.536 20.117 425.543 20.2455 425.556 20.3796Z" fill="#FB4E4E"/>
<path d="M257.906 3.7561L259.177 3.93491C259.177 4.04108 259.13 4.14165 259.11 4.24223L257.838 4.03549C257.865 3.96285 257.885 3.85109 257.906 3.7561Z" fill="#FB4E4E"/>
<path d="M324.199 5.89648H325.471C325.484 6.00425 325.484 6.11282 325.471 6.22058C325.072 6.22058 324.673 6.22058 324.28 6.22058C324.226 6.12 324.213 6.00824 324.199 5.89648Z" fill="#FB4E4E"/>
<path d="M419.448 12.4503L417.811 12.2994C417.811 12.2268 417.811 12.1709 417.811 12.115L419.563 12.2044L419.448 12.4503Z" fill="#FB4E4E"/>
<path d="M415.226 36.0642L412.893 35.7066V35.5613L415.24 35.6619C415.247 35.8127 415.24 35.9301 415.226 36.0642Z" fill="#FB4E4E"/>
<path d="M423.336 12.4841L425.365 12.8026L425.304 13.0932L423.275 12.8138C423.268 12.702 423.316 12.5959 423.336 12.4841Z" fill="#FB4E4E"/>
<path d="M381.214 38.8302L383.115 38.0647C383.257 38.4111 383.365 38.6682 383.534 39.0984L381.214 38.8302Z" fill="#FB4E4E"/>
<path d="M373.362 55.2634L375.662 55.3587V55.4484H373.342L373.362 55.2634Z" fill="#FB4E4E"/>
<path d="M322.676 27.0458L321.526 26.7608C321.526 26.6546 321.574 26.5485 321.601 26.4423C321.859 26.417 322.12 26.417 322.379 26.4423C322.548 26.4814 322.67 26.6434 322.812 26.7496L322.676 27.0458Z" fill="#FB4E4E"/>
<path d="M218.187 2.44849L219.709 2.68316C218.985 3.51014 218.525 3.20283 218.187 2.44849Z" fill="#FB4E4E"/>
<path d="M344.43 18.0776L345.783 18.2173L345.743 18.5246L344.39 18.4241L344.43 18.0776Z" fill="#FB4E4E"/>
<path d="M431.272 20.7985L429.757 20.7203C429.757 20.6253 429.757 20.5303 429.757 20.4353L431.265 20.5638C431.292 20.642 431.279 20.7259 431.272 20.7985Z" fill="#FB4E4E"/>
<path d="M421.083 19.6868L423.112 19.7873C423.112 19.8823 423.112 19.9717 423.112 20.0667H421.083V19.6868Z" fill="#FB4E4E"/>
<path d="M433.03 20.7817H434.092V21.0555L433.051 21.1338C433.064 21.0164 433.044 20.8991 433.03 20.7817Z" fill="#FB4E4E"/>
<path d="M327.798 6.4663L326.58 6.25396C326.621 6.12544 326.654 5.99693 326.688 5.86841L327.892 6.11427C327.892 6.23161 327.831 6.34895 327.798 6.4663Z" fill="#FB4E4E"/>
<path d="M318.603 26.8392L316.723 26.124C317.697 25.9564 318.285 25.867 318.603 26.8392Z" fill="#FB4E4E"/>
<path d="M277.868 4.00234C277.503 4.09174 277.26 4.20908 277.192 4.15879C277.029 4.00791 276.892 3.83859 276.786 3.6559C276.908 3.61679 277.063 3.5162 277.131 3.54414C277.391 3.6807 277.638 3.8339 277.868 4.00234Z" fill="#FB4E4E"/>
<path d="M411.771 39.2434H413.123V39.3555H411.771V39.2434Z" fill="#FB4E4E"/>
<path d="M276.38 25.0844L275.588 25.1179C275.588 25.0508 275.588 24.9894 275.541 24.9223L276.353 24.7659C276.36 24.872 276.366 24.9782 276.38 25.0844Z" fill="#FB4E4E"/>
<path d="M322.628 6.16439L321.613 5.7006C321.613 5.62796 321.674 5.54975 321.708 5.47152C321.973 5.46061 322.238 5.48512 322.493 5.54414C322.662 5.6112 322.736 5.8403 322.851 5.99117L322.628 6.16439Z" fill="#FB4E4E"/>
<path d="M430.798 26.5659C430.595 26.5659 430.392 26.5659 430.196 26.5211C430.187 26.439 430.187 26.3565 430.196 26.2744L430.784 26.3809L430.798 26.5659Z" fill="#FB4E4E"/>
</svg>
