<svg width="231" height="56" viewBox="0 0 231 56" fill="none" xmlns="http://www.w3.org/2000/svg">
<path d="M230.657 25.7321L183.7 21.1222C183.638 22.0777 183.968 22.156 184.324 22.1951C186.165 22.4018 188.01 22.5862 189.847 22.8153C191.886 23.0723 193.92 23.3741 195.955 23.6535C196.587 23.7373 197.218 23.7652 197.85 23.8434C198.212 23.8689 198.565 24.0082 198.885 24.2513C190.273 24.6369 181.72 23.0612 173.101 22.9718L174.535 23.5696C174.659 24.3687 174.395 24.4972 173.988 24.4916C172.384 24.4525 170.779 24.4916 169.175 24.4078C167.105 24.3296 165.039 24.134 162.974 24.1172C161.927 24.1172 160.885 24.514 159.838 24.4972C159.253 24.4972 158.676 24.0167 158.083 23.7429C157.928 23.6702 157.742 23.4244 157.641 23.4914C156.68 24.1061 155.754 23.307 154.804 23.3964C153.855 23.4858 152.866 23.307 151.897 23.3294C151.08 23.3294 150.266 23.972 149.44 23.3573C149.336 23.2735 149.235 23.1785 149.018 22.9885L150.06 21.8989C148.588 21.2787 147.309 21.5748 145.983 21.9548L148.309 23.1953L147.983 24.771L148.979 25.1119C148.979 25.1845 148.979 25.2571 148.979 25.3298L147.549 25.5868C147.549 25.7433 147.549 25.8941 147.549 26.0506C148.394 26.2238 149.235 26.3914 150.076 26.5758C150.82 26.7379 151.556 26.9614 152.3 27.0843C152.87 27.1737 153.463 27.1402 154.025 27.1849C154.858 27.2519 155.688 27.3805 156.521 27.414C158.629 27.4978 160.738 27.4866 162.842 27.6207C164.946 27.7548 167.055 28.023 169.159 28.2633C173.949 28.8221 178.743 29.3808 183.538 29.9061C188.839 30.4649 194.141 31.0236 199.427 31.5824C205.152 32.2026 210.876 32.8061 216.596 33.5102C219.79 33.9013 222.972 34.4768 226.157 34.9853C226.477 35.0601 226.794 35.159 227.107 35.2815C227.025 35.5385 226.994 35.7229 226.96 35.7229C225.491 35.7229 224.018 35.7676 222.549 35.6838C221.287 35.631 220.028 35.4743 218.778 35.2144C214.152 34.1572 209.484 33.5282 204.803 33.3314C202.664 33.2475 200.54 32.9235 198.397 32.7726C197.792 32.7279 197.152 33.1078 196.575 32.9402C195.87 32.7335 195.199 33.1078 194.432 32.6832C193.467 32.1244 192.289 32.3982 191.203 32.3367C186.165 32.035 181.1 31.778 176.05 31.4259C172.973 31.2136 169.907 30.7666 166.83 30.6101C165.28 30.5375 163.749 30.8895 162.21 31.0348C161.873 31.0627 161.532 31.0348 161.195 31.0348C158.032 31.0348 154.885 30.599 151.731 30.3922C149.332 30.2358 146.929 30.3922 144.526 30.3922C142.286 30.3922 140.046 30.3922 137.81 30.3922C134.814 30.3922 131.822 30.3419 128.83 30.3308C128.428 30.3141 128.032 30.4846 127.702 30.8169C127.915 30.9916 128.145 31.1179 128.384 31.1913C131.411 31.4148 134.442 31.6047 137.469 31.8059L145.995 32.3647C148.417 32.5323 150.839 32.7279 153.262 32.8955C156.928 33.1525 160.594 33.4152 164.26 33.6331C165.384 33.7001 166.52 33.5381 167.64 33.6331C168.95 33.756 170.244 34.0578 171.547 34.2868C171.547 34.4098 171.547 34.5383 171.547 34.6612L165.346 34.2589C165.346 34.326 165.346 34.3874 165.346 34.4545C165.952 34.797 166.573 35.079 167.206 35.2982C167.867 35.4085 168.532 35.457 169.198 35.4435L171.349 35.5385C172.023 35.572 172.698 35.6558 173.372 35.6223C174.046 35.5888 174.767 36.237 175.542 35.1697L173.949 34.8512C174.085 34.5942 174.147 34.3707 174.213 34.3651C176.717 34.1373 179.231 34.2739 181.716 34.773C183.08 35.0579 184.429 35.6055 185.813 35.2368C187.665 36.1923 189.657 35.572 191.669 36.5499C187.568 36.6504 183.634 35.6949 179.685 35.5832C179.685 35.7508 179.658 35.9185 179.643 36.0861L182.483 36.7119C182.483 36.8013 182.483 36.8963 182.483 36.9913L173.031 36.209C173.488 37.1869 173.984 37.0025 174.387 37.0528C177.656 37.4737 180.925 37.8686 184.196 38.2374C187.522 38.6061 190.847 38.9358 194.176 39.2543C196.955 39.5169 199.737 39.7348 202.516 39.9919C202.894 40.0306 203.248 40.2765 203.505 40.6792C203.141 40.7479 202.775 40.7834 202.408 40.7853C200.687 40.668 198.97 40.5339 197.253 40.3663C195.536 40.1986 193.723 39.9807 191.959 39.8075C189.99 39.6119 188.018 39.4443 186.053 39.2487C184.169 39.0532 182.286 38.7905 180.402 38.6117C174.422 38.0529 168.438 37.4942 162.439 37.3545C159.366 37.2874 156.296 36.9913 153.223 36.846C151.862 36.7846 150.51 36.846 149.064 36.846C149.386 37.4998 149.839 37.3433 150.227 37.3657C152.246 37.483 154.265 37.5333 156.285 37.6451C159.49 37.8239 162.695 37.9915 165.896 38.2038C170.03 38.513 174.156 38.8539 178.275 39.2264C180.418 39.4163 182.561 39.6846 184.7 39.9304C184.944 39.9584 185.285 39.9304 185.413 40.1483C185.999 41.115 186.781 40.9921 187.526 41.0703C188.618 41.1821 189.715 41.2379 190.808 41.3441C190.944 41.3441 191.068 41.5062 191.405 41.7353C190.184 42.389 189.149 42.0984 188.138 42.0593C186.886 42.0146 185.638 41.8191 184.386 41.7855C181.825 41.7185 179.255 41.7855 176.693 41.6626C174.554 41.5564 172.43 41.1988 170.283 41.02C167.57 40.7909 164.857 40.5842 162.144 40.4612C160.296 40.3718 158.447 40.4612 156.595 40.411C154.866 40.3718 153.138 40.2545 151.413 40.193C149.808 40.1372 148.204 40.1204 146.599 40.0533C145.472 40.0086 144.34 39.9807 143.22 39.8187C141.565 39.5784 139.945 39.8913 138.317 40.1707C137.988 40.2631 137.65 40.2631 137.321 40.1707C135.426 39.3661 133.469 39.5169 131.539 39.4275C129.938 39.3549 128.338 39.4555 126.737 39.5002C126.344 39.503 125.959 39.6512 125.617 39.9304C125.817 40.0486 126.022 40.1512 126.229 40.2377C126.958 40.4948 127.687 40.7462 128.419 40.9641C128.705 41.0339 128.994 41.0676 129.283 41.0647L135.988 41.3497C136.073 41.3581 136.159 41.3581 136.244 41.3497C138.476 40.9139 140.67 41.7632 142.887 41.8638C144.859 41.9532 146.816 42.4784 148.789 42.7075C150.293 42.8751 151.808 42.8751 153.32 42.9478C155.599 43.0651 157.877 43.1545 160.152 43.3054C166.012 43.6965 171.872 44.0877 177.732 44.5459C180.057 44.7247 182.383 45.1046 184.677 45.384C184.82 45.384 184.964 45.5013 185.127 45.9092C184.701 46.0387 184.27 46.1246 183.836 46.1663C182.491 46.1663 181.142 46.211 179.802 46.0936C178.461 45.9763 177.023 45.7416 175.639 45.4734C172.598 44.844 169.523 44.6288 166.454 44.8308C165.516 44.9035 164.594 44.4509 163.671 44.8308C162.121 43.8418 160.47 44.4509 158.866 44.2721C157.261 44.0932 155.661 44.1659 154.06 44.1715C151.083 44.1715 148.112 44.0877 145.146 43.92C144.669 43.92 144.189 43.9592 143.596 43.9871C143.914 44.9817 144.398 44.8029 144.759 44.8364C146.309 44.9649 147.882 45.0152 149.44 45.1158C154.924 45.479 160.408 45.8813 165.896 46.1998C166.741 46.2501 167.152 47.0212 167.543 47.647L171.632 48.2952C170.779 49.3513 169.973 48.636 169.213 48.921C169.182 49.2172 169.151 49.5524 169.109 50.0386L139.84 49.2451L139.569 50.1783C139.713 50.2453 139.821 50.3291 139.84 50.3012C140.228 49.6865 140.693 49.8989 141.147 49.9492C143.949 50.2621 146.754 50.575 149.557 50.9158C150.804 51.0667 152.045 51.3461 153.296 51.4746C153.824 51.5249 154.362 51.2567 154.897 51.2567C156.668 51.2567 158.439 51.3014 160.21 51.3293C160.252 51.3237 160.293 51.3237 160.334 51.3293C161.195 51.5808 161.978 50.6588 162.962 51.3572C163.737 51.916 164.861 51.5528 165.83 51.6087C166.799 51.6646 167.683 51.726 168.609 51.7875C169.535 51.849 170.489 51.7204 171.361 52.0557C171.95 52.2848 172.581 51.9049 173.198 52.648C173.616 53.1453 174.531 53.1565 175.17 52.3463C175.457 51.9831 175.945 51.3628 176.174 52.5642C176.174 52.6312 176.391 52.7095 176.41 52.6704C177.042 51.5528 177.484 52.8715 178.123 52.9386L178.666 51.6311C179.518 51.7581 180.359 52.007 181.177 52.3742C182.251 52.933 183.456 52.9889 184.611 53.19C185.386 53.3185 186.192 53.2962 186.983 53.38C187.867 53.4806 188.75 53.6314 189.634 53.7544C192.517 54.1492 195.399 54.546 198.28 54.9446C199.567 55.1234 200.85 55.3189 202.136 55.5983C201.218 55.5983 200.299 55.6486 199.385 55.5983C196.132 55.3823 192.882 55.142 189.634 54.8775C185.929 54.5814 182.224 54.179 178.515 53.9611C174.725 53.732 170.926 53.6873 167.132 53.5365C164.687 53.4359 162.245 53.2682 159.8 53.1621C158.032 53.0839 156.261 53.0615 154.49 53C148.964 52.8212 143.441 52.5865 137.914 52.4413C135.136 52.3798 132.353 52.4916 129.57 52.553C125.947 52.6312 122.323 52.7486 118.719 52.8268C115.238 52.8976 111.759 52.9497 108.282 52.9833C104.817 53.0168 101.356 52.9833 97.8912 53.0168C92.0236 53.0615 86.156 53.0839 80.2884 53.1956C77.6297 53.2459 74.9788 53.5309 72.3202 53.6259C68.1862 53.7674 64.0523 53.8661 59.9183 53.922C54.7677 54.0114 49.6171 54.0058 44.4703 54.1343C41.1451 54.2126 37.8237 54.5087 34.4984 54.6261C30.5802 54.7602 26.662 54.9166 22.74 54.8663C17.973 54.7993 13.2022 54.5646 8.4352 54.3076C5.7223 54.1735 3.03652 53.8829 0.339119 53.6762C-1.04446 53.5756 -2.34278 53.8438 -3.45894 55.2183C-3.76899 55.6039 -4.23405 55.6989 -4.74175 55.9727C-4.84252 54.6372 -3.89688 54.6428 -3.76511 53.57C-5.04701 53.2827 -6.34358 53.1537 -7.64069 53.1844C-9.69474 53.3353 -11.7566 53.4247 -13.7951 54.112C-15.1244 54.559 -16.539 54.492 -18.128 54.6708L-17.3219 53.8214L-19 52.1451C-18.3954 51.6366 -17.8373 51.279 -17.7288 50.2341C-17.6823 49.7871 -17.3102 49.3289 -17.0079 49.0439C-16.2096 48.2784 -15.5314 47.4515 -15.5507 45.9037C-15.5507 45.7696 -15.4035 45.6299 -15.3492 45.5405L-16.8646 42.132L-14.9539 40.9809C-14.9772 39.3046 -14.6904 37.5836 -16.3956 37.4327C-15.7716 36.2314 -16.8762 34.8456 -15.7639 33.7057L-17.6087 32.7223C-17.4867 32.3435 -17.326 31.9931 -17.132 31.683C-16.9509 31.5265 -16.8181 31.2764 -16.7605 30.9837C-16.7028 30.6909 -16.7248 30.3775 -16.8219 30.1072C-16.9072 29.7776 -16.7173 29.3194 -16.7095 28.9227C-16.6672 28.5311 -16.7021 28.1303 -16.8103 27.766C-17.3839 26.5479 -17.3839 26.1679 -16.6359 25.3074C-16.4731 25.123 -16.229 25.0336 -16.1166 24.8101C-15.9305 24.4357 -15.6205 23.7987 -15.7096 23.5976C-16.2018 22.48 -15.7949 21.234 -16.0972 20.1332C-16.2832 19.485 -16.4615 18.8313 -16.6785 18.0658C-16.5545 17.3338 -15.8298 16.6018 -16.4421 15.5289C-16.5506 15.339 -16.2716 14.6629 -16.1437 14.2326C-15.9654 13.6236 -15.7561 13.0257 -15.5624 12.439C-15.3686 11.8522 -15.3802 11.2823 -15.9305 11.137C-15.7436 10.246 -15.4351 9.41786 -15.0231 8.70109C-14.6112 7.98432 -14.104 7.39341 -13.5316 6.96302C-12.7396 6.37562 -12.0856 5.4639 -11.6519 4.34239C-11.0706 2.90076 -10.1443 2.31406 -9.05139 2.14643C-7.66781 1.93409 -6.28811 1.67706 -4.90065 1.53178C-0.823549 1.1127 3.23806 0.576281 7.33842 0.414238C9.90017 0.302484 12.4774 0.738324 15.0469 0.973008C16.7638 1.1127 18.4846 1.31385 20.2053 1.40325C22.1431 1.50942 24.0809 1.58766 26.0187 1.55413C28.8013 1.50384 31.584 1.2915 34.3706 1.26356C36.4324 1.26356 38.5097 0.950652 40.5443 1.78881C40.9977 1.93952 41.4629 2.0034 41.9279 1.97879C46.7414 2.12407 51.5587 2.247 56.3722 2.39786C59.1859 2.48168 62.0073 2.84488 64.8093 2.62696C66.5766 2.49286 68.3283 3.04045 70.0646 2.66049C71.704 2.29729 73.2968 2.60461 74.9091 2.85047C75.8421 3.05114 76.7895 3.0737 77.7266 2.91753C78.2053 2.81082 78.6753 2.63485 79.1296 2.39229C79.6412 2.10731 80.2922 2.39228 80.9123 2.45934C81.5324 2.52639 82.168 2.59343 82.7997 2.58784C83.4314 2.58226 84.0322 2.40346 84.6445 2.43698C85.1755 2.43698 85.6948 2.71077 86.2258 2.80018C86.5807 2.82831 86.9365 2.82831 87.2915 2.80018C87.5323 3.08886 87.8065 3.31397 88.1015 3.46512C88.1825 3.49692 88.267 3.505 88.3502 3.4889C88.4333 3.4728 88.5134 3.43284 88.5856 3.37138C88.6579 3.30991 88.7209 3.22821 88.7708 3.13106C88.8208 3.03391 88.8568 2.9233 88.8767 2.80577C89.0549 1.98997 89.4541 1.89498 89.9812 2.247C92.1709 3.67186 94.5234 3.01252 96.8177 3.50983L97.1704 2.16319C97.399 2.26377 97.7168 2.29169 97.7556 2.44815C98.2013 4.42061 99.3639 3.60482 100.244 3.77245C100.596 3.8395 100.976 3.58245 101.561 3.40923L100.542 2.67725C101.395 2.11848 101.705 2.26377 102.569 3.61599L103.108 2.73313C103.193 2.73313 103.294 2.6549 103.352 2.6996C105.069 4.05741 106.956 3.21925 108.751 3.58245C109.581 3.77388 110.425 3.81518 111.262 3.70538C111.805 3.61598 112.146 4.88998 112.715 4.01272C113.828 4.95704 115.017 4.01271 116.203 4.32003C117.242 4.61618 118.343 4.40944 119.428 4.58825C120.912 4.83969 122.431 4.66088 123.931 4.70558C127.032 4.79499 130.152 4.93468 133.264 5.01849C136.461 5.10231 139.662 5.07996 142.86 5.21407C145.007 5.30906 147.15 5.62756 149.301 5.77284C150.649 5.87341 152.014 5.88459 153.351 5.93488C154.354 5.96841 155.362 5.98516 156.37 6.02987C157.711 6.09133 159.052 6.21985 160.393 6.22544C160.787 6.12744 161.168 5.93878 161.52 5.66667C161.586 6.4713 162.129 6.30926 162.602 6.3372C164.284 6.42101 165.966 6.44894 167.64 6.58863C171.38 6.90155 175.116 7.1474 178.844 7.89615C182.014 8.53874 185.243 8.57227 188.444 8.91871C190.339 9.11987 192.227 9.39926 194.118 9.65629C194.366 9.68982 194.699 9.65629 194.839 9.8798C195.843 11.4276 197.164 10.8744 198.377 11.1091C198.858 11.145 199.328 11.3198 199.761 11.6232C199.66 11.6914 199.553 11.7385 199.443 11.7628C194.924 11.7628 190.405 11.8578 185.902 11.0867C184.107 10.6852 182.287 10.5802 180.476 10.7738C177.445 11.2655 174.414 10.5783 171.364 11.3326C171.729 11.4276 172.093 11.5617 172.461 11.6064C175.112 11.9305 177.767 12.221 180.414 12.5675C180.99 12.6247 181.557 12.8133 182.092 13.1262C182.411 13.3542 182.759 13.4844 183.115 13.5084C183.47 13.5324 183.825 13.4499 184.158 13.2659C184.41 13.1262 184.789 13.5677 185.099 13.5286C188.429 13.143 191.614 14.8752 194.932 14.8975C196.974 14.8975 199.02 15.4563 201.063 15.7748L201.098 15.7245C200.933 15.9501 200.736 16.1218 200.52 16.2278C200.305 16.3339 200.076 16.3719 199.85 16.3392C198.858 16.1492 197.846 16.138 196.842 16.0877C196.193 16.0342 195.541 16.1075 194.905 16.3056C197.428 17.2053 200.036 16.9203 202.551 17.7752C192.653 16.9706 182.786 15.7972 172.887 14.9087C172.887 15.0652 172.868 15.2272 172.856 15.3837L179.36 16.2442L179.825 17.602C179.716 17.6802 179.615 17.8255 179.519 17.8199C177.709 17.7193 175.899 17.602 174.093 17.4902C173.17 17.4288 172.248 17.3617 171.326 17.3114C165.652 16.9929 159.978 16.6465 154.304 16.3727C152.134 16.2665 149.963 16.3727 147.793 16.2777C145.948 16.2162 144.107 15.9983 142.259 15.9592C138.953 15.881 135.647 15.8698 132.337 15.8586C127.532 15.8586 122.722 15.8586 117.912 15.8586C113.82 15.8586 109.727 15.7301 105.639 15.7301C104.688 15.7464 103.747 16.0076 102.86 16.5012C104.05 16.5459 105.239 16.6297 106.425 16.6297C110.816 16.6297 115.203 16.5403 119.602 16.6297C125.71 16.7471 131.814 16.9873 137.922 17.1885C144.371 17.3897 150.824 17.5517 157.273 17.8031C160.269 17.9205 163.257 18.2111 166.253 18.401C168.148 18.5184 170.051 18.5407 171.946 18.6972C175.403 18.9877 178.856 19.3342 182.313 19.675C187.028 20.1332 191.743 20.6026 196.459 21.0831C198.482 21.2843 200.501 21.5357 202.524 21.7425C205.094 22.0051 207.667 22.1783 210.233 22.5024C213.131 22.8656 216.019 23.3685 218.914 23.782C220.964 24.0781 223.018 24.3128 225.072 24.5922C226.746 24.8213 228.417 25.056 230.087 25.3354C230.296 25.3689 230.475 25.6762 230.684 25.855L230.657 25.7321ZM148.25 33.9739L147.723 33.5493C147.696 33.7504 147.673 33.9572 147.65 34.1583L148.281 33.9125C148.669 34.2645 149.029 34.6668 149.487 34.0466C149.06 33.1693 148.65 34.0745 148.25 33.9739ZM122.261 30.9733C122.869 31.0739 123.501 31.3645 124.078 31.2192C124.656 31.0739 125.326 31.5936 125.795 30.3587C124.745 30.3587 123.834 30.3196 122.924 30.3922C122.699 30.3922 122.49 30.7834 122.265 30.9845C121.792 30.694 121.323 30.0123 120.656 31.1074L122.261 30.9733ZM161.474 19.8371C161.861 20.1165 161.978 20.3008 162.11 20.3008C162.79 20.2228 163.473 20.1949 164.156 20.217C165.815 20.4405 167.462 20.8484 169.124 21.0384C170.419 21.1837 171.736 20.9937 173.031 21.1781C174.325 21.3625 175.585 20.6193 176.875 21.1781C177.444 21.379 178.026 21.4877 178.612 21.5022C178.931 21.4634 179.247 21.3753 179.553 21.2396C178.205 20.3847 172.965 19.8091 164.191 19.4906C163.381 19.4459 162.532 19.1107 161.474 19.8594V19.8371ZM149.781 9.67305C149.514 9.47748 149.332 9.20927 149.181 9.24838C147.63 9.63393 146.123 8.82371 144.58 8.85724C143.189 8.88518 141.794 8.80695 140.402 8.77343C140.185 8.73788 139.965 8.78053 139.763 8.89755C139.56 9.01457 139.38 9.2023 139.24 9.44396C139.325 9.57806 139.356 9.65628 139.387 9.66187C142.019 9.8742 144.65 10.1312 147.285 10.2709C148.064 10.3324 148.936 10.6229 149.781 9.69539V9.67305ZM132.38 49.0607C132.64 49.4183 132.768 49.7592 132.923 49.7815C134.585 50.0162 136.244 50.2341 137.907 50.3794C138.368 50.4185 138.6 49.9939 138.294 49.0607H132.38ZM147.192 33.7951C146.87 33.6456 146.54 33.539 146.204 33.4766C144.266 33.4096 142.329 33.376 140.414 33.3425C140.299 33.3712 140.188 33.4259 140.085 33.5046C140.127 33.6554 140.17 33.8007 140.209 33.9516C142.1 34.1304 143.987 34.3148 145.879 34.4712C146.211 34.489 146.544 34.4534 146.871 34.3651C146.96 34.3427 147.022 34.108 147.192 33.7951ZM142.247 18.7754C142.918 19.8147 143.763 19.5353 144.573 19.6639C145.383 19.7924 146.173 19.9879 146.96 20.1444C147.262 19.4012 147.297 18.8201 146.65 18.7922C145.173 18.7419 143.704 18.7754 142.247 18.7754ZM122.548 18.5519C123.478 19.5186 124.485 18.8033 125.365 19.0324C126.257 19.1565 127.154 19.1714 128.047 19.0771C127.008 18.1663 123.881 17.9819 122.548 18.5519ZM144.181 36.6113C142.704 35.6391 141.433 35.8067 140.061 36.4213C140.918 37.0863 142.693 37.1924 144.181 36.6113ZM136.256 24.1619C135.87 23.777 135.42 23.5484 134.952 23.5002C134.485 23.4521 134.016 23.5861 133.597 23.8882C134.186 24.8436 135.209 24.9498 136.256 24.1619ZM158.346 34.6109C157.459 33.8398 156.126 33.8845 155.428 34.6109H158.346ZM122.629 39.3884C123.571 39.9975 123.792 39.9919 124.733 39.3884H122.629ZM134.744 18.4346V19.0268L136.748 19.2615C136.748 19.0883 136.748 18.9207 136.779 18.7475L134.744 18.4346ZM179.937 21.5413C180.398 21.6922 180.674 21.7983 180.949 21.8486C180.949 21.8486 181.1 21.396 181.046 21.2899C180.794 20.6976 180.487 20.664 179.929 21.5413H179.937ZM161.838 34.9518L163.028 34.4545C162.416 34.1583 162.11 34.0186 161.83 34.9462L161.838 34.9518ZM148.181 36.941C148.181 36.8684 148.181 36.8013 148.181 36.7343H146.859V36.941H148.181ZM191.917 15.9033C191.917 15.9704 191.917 16.0374 191.917 16.1045H192.885C192.885 16.0374 192.885 15.9704 192.885 15.9033H191.917ZM137.472 24.9163C137.418 24.2569 137.178 24.0334 136.717 24.3128L137.472 24.9163ZM144.685 36.6504C144.685 36.7845 144.72 36.9187 144.735 37.0528C145.045 36.7566 145.46 37.226 145.933 36.494L144.685 36.6504ZM120.319 30.7387C120.129 30.6213 120.025 30.4984 119.932 30.5096C119.839 30.5207 119.773 30.6884 119.695 30.7834C119.788 30.8616 119.881 30.9957 119.978 31.0013C120.075 31.0069 120.153 30.8951 120.319 30.7554V30.7387Z" fill="#53565B" fill-opacity="0.9"/>
</svg>
