<svg width="123" height="129" viewBox="0 0 123 129" fill="none" xmlns="http://www.w3.org/2000/svg">
<path d="M123 55.875C123 52.9375 121.875 50.1875 119.813 48.125L111 39.3125L97.7504 26.0625L75.6879 4C71.4379 -0.25 64.5004 -0.25 60.2504 4L29.3129 34.9375C22.6254 41.625 22.6254 52.5625 29.3129 59.25L33.1879 63.125C33.6254 63.5625 33.6879 64.0625 33.6254 64.3125C33.6254 64.5625 33.5004 65.0625 33.0629 65.4375L8.93788 84.6875C4.18788 88.5 1.25038 94.1875 0.937876 100.25C0.625376 106.313 2.87538 112.313 7.18788 116.625C11.2504 120.688 16.6879 122.938 22.3754 122.938C22.7504 122.938 23.1879 122.938 23.5629 122.938C29.6254 122.625 35.3129 119.688 39.1254 114.938L58.3754 90.8125C58.7504 90.3125 59.2504 90.25 59.5004 90.25C59.7504 90.25 60.2504 90.25 60.6879 90.6875L64.5629 94.5625C71.2504 101.25 82.1879 101.25 88.8754 94.5625L93.3129 90.125L119.813 63.625C121.875 61.5625 123 58.8125 123 55.875ZM71.1879 87.9375L67.3129 84.0625C65.1254 81.875 62.0629 80.6875 59.0004 80.875C55.8754 81.0625 53.0004 82.5625 51.0629 84.9375L31.8129 109.063C29.6254 111.813 26.5004 113.375 23.0629 113.563C19.6254 113.813 16.3129 112.5 13.8129 110.063C11.3129 107.625 10.1254 104.313 10.3129 100.813C10.5004 97.3125 12.1254 94.1875 14.8129 92.0625L38.9379 72.8125C41.3754 70.875 42.8754 68 43.0004 64.875C43.1879 61.75 42.0004 58.75 39.8129 56.5625L35.9379 52.6875C32.8754 49.625 32.8754 44.6875 35.9379 41.625L37.0629 40.5L83.4379 86.875L82.3129 88C79.2504 91.0625 74.3129 91.0625 71.2504 88L71.1879 87.9375ZM113.188 57L90.0004 80.1875L43.6254 33.8125L66.8129 10.625C66.8129 10.625 67.5004 10.1875 67.9379 10.1875C68.3754 10.1875 68.7504 10.3125 69.0629 10.625L74.5629 16.125L69.0629 21.625C67.2504 23.4375 67.2504 26.4375 69.0629 28.25C70.0004 29.1875 71.1879 29.625 72.3754 29.625C73.5629 29.625 74.7504 29.1875 75.6879 28.25L81.1879 22.75L87.8129 29.375L73.4379 43.75C71.6254 45.5625 71.6254 48.5625 73.4379 50.375C74.3754 51.3125 75.5629 51.75 76.7504 51.75C77.9379 51.75 79.1254 51.3125 80.0629 50.375L94.4379 36L101.063 42.625L91.1254 52.5625C89.3129 54.375 89.3129 57.375 91.1254 59.1875C92.0629 60.125 93.2504 60.5625 94.4379 60.5625C95.6254 60.5625 96.8129 60.125 97.7504 59.1875L107.688 49.25L113.188 54.75C113.813 55.375 113.813 56.375 113.188 56.9375V57Z" fill="white"/>
<g filter="url(#filter0_d_531_672)">
<path d="M23.6875 95.4375H23.625C21.0625 95.4375 19 97.5625 19 100.125C19 102.687 21.125 104.812 23.6875 104.812C26.25 104.812 28.375 102.687 28.375 100.125C28.375 97.5625 26.25 95.4375 23.6875 95.4375Z" fill="white"/>
</g>
<defs>
<filter id="filter0_d_531_672" x="3" y="87.4375" width="41.375" height="41.375" filterUnits="userSpaceOnUse" color-interpolation-filters="sRGB">
<feFlood flood-opacity="0" result="BackgroundImageFix"/>
<feColorMatrix in="SourceAlpha" type="matrix" values="0 0 0 0 0 0 0 0 0 0 0 0 0 0 0 0 0 0 127 0" result="hardAlpha"/>
<feOffset dy="8"/>
<feGaussianBlur stdDeviation="8"/>
<feComposite in2="hardAlpha" operator="out"/>
<feColorMatrix type="matrix" values="0 0 0 0 0 0 0 0 0 0 0 0 0 0 0 0 0 0 0.2 0"/>
<feBlend mode="normal" in2="BackgroundImageFix" result="effect1_dropShadow_531_672"/>
<feBlend mode="normal" in="SourceGraphic" in2="effect1_dropShadow_531_672" result="shape"/>
</filter>
</defs>
</svg>
