<svg width="114" height="122" viewBox="0 0 114 122" fill="none" xmlns="http://www.w3.org/2000/svg">
<path d="M25.0625 9.4375V36C25.0625 40.375 27.625 44.0625 31.3125 45.8125V54.75C31.3125 60.75 36.25 65.6875 42.25 65.6875H43.8125V98.5C43.8125 101.062 45.9375 103.188 48.5 103.188C51.0625 103.188 53.1875 101.062 53.1875 98.5V65.6875H54.75C60.75 65.6875 65.6875 60.75 65.6875 54.75V45.8125C69.375 44.0625 71.9375 40.3125 71.9375 36V9.4375H92.25C94.8125 9.4375 96.9375 7.3125 96.9375 4.75C96.9375 2.1875 94.8125 0.0625 92.25 0.0625H4.75C2.1875 0.0625 0.0625 2.1875 0.0625 4.75C0.0625 7.3125 2.1875 9.4375 4.75 9.4375H25.0625ZM56.3125 54.75C56.3125 55.625 55.625 56.3125 54.75 56.3125H42.25C41.375 56.3125 40.6875 55.625 40.6875 54.75V46.9375H56.3125V54.75ZM62.5625 9.4375V36C62.5625 36.875 61.875 37.5625 61 37.5625H36C35.125 37.5625 34.4375 36.875 34.4375 36V9.4375H62.5625Z" fill="white"/>
<path d="M112.688 88.8125L110.625 82.5625C109.125 78.0625 104.938 75.0625 100.25 75.0625H61.0003C58.4378 75.0625 56.3128 77.1875 56.3128 79.75C56.3128 82.3125 58.4378 84.4375 61.0003 84.4375H100.25C100.938 84.4375 101.5 84.875 101.75 85.5L103.813 91.75C104.063 92.4375 103.813 92.9375 103.625 93.125C103.438 93.375 103.063 93.75 102.375 93.75H86.0628C80.0628 93.75 75.1253 98.6875 75.1253 104.688V110.938C75.1253 111.813 74.4378 112.5 73.5628 112.5H13.4378C12.7503 112.5 12.3753 112.062 12.1878 111.875C12.0003 111.625 11.7503 111.125 12.0003 110.5L20.3128 85.5C20.5003 84.875 21.1253 84.4375 21.8128 84.4375H36.0628C38.6253 84.4375 40.7503 82.3125 40.7503 79.75C40.7503 77.1875 38.6253 75.0625 36.0628 75.0625H21.8128C17.1253 75.0625 12.9378 78.0625 11.4378 82.5625L3.12531 107.563C2.00031 110.875 2.56281 114.563 4.62531 117.438C6.68781 120.313 10.0003 122 13.5003 122H73.5628C79.5628 122 84.5003 117.063 84.5003 111.063V104.813C84.5003 103.938 85.1878 103.25 86.0628 103.25H102.375C105.875 103.25 109.188 101.563 111.25 98.6875C113.313 95.8125 113.875 92.1875 112.75 88.8125H112.688Z" fill="white"/>
<path d="M33.0625 88.9375C31.25 87.125 28.25 87.125 26.4375 88.9375C24.625 90.75 24.625 93.75 26.4375 95.5625L32.6875 101.813C33.625 102.75 34.8125 103.188 36 103.188C37.1875 103.188 38.375 102.75 39.3125 101.813C41.125 100 41.125 97 39.3125 95.1875L33.0625 88.9375Z" fill="white"/>
<path d="M64.3125 101.813L70.5625 95.5625C72.375 93.75 72.375 90.75 70.5625 88.9375C68.75 87.125 65.75 87.125 63.9375 88.9375L57.6875 95.1875C55.875 97 55.875 100 57.6875 101.813C58.625 102.75 59.8125 103.188 61 103.188C62.1875 103.188 63.375 102.75 64.3125 101.813Z" fill="white"/>
</svg>
