<svg width="116" height="121" viewBox="0 0 116 121" fill="none" xmlns="http://www.w3.org/2000/svg">
<path d="M115.25 43C115.25 36.75 112.813 30.875 108.375 26.4375C106.563 24.625 103.563 24.625 101.75 26.4375L84.6875 43.5L82.8125 40.125C81.125 37.0625 81.6875 33.25 84.125 30.8125L99.5625 15.375C101.375 13.5625 101.375 10.5625 99.5625 8.75C93.9375 3.125 86.5 0.0625 78.5625 0.0625C70.625 0.0625 63.1875 3.125 57.5625 8.75L49.3125 17C42.3125 24 39.25 34.0625 41.1875 43.8125C42 47.875 40.75 52.0625 37.8125 55L6.75 86.0625C-1.1875 94 -1.1875 106.875 6.75 114.812C10.5625 118.625 15.6875 120.75 21.125 120.75C26.5625 120.75 31.625 118.625 35.5 114.812L68.0625 82.25C70.375 79.9375 73.5625 78.625 76.875 78.625H91C93.8125 78.625 96.3125 77.1875 97.75 74.75C98.75 73.0625 99 71.1875 98.6875 69.375L108.5 59.5625C112.938 55.125 115.375 49.25 115.375 43H115.25ZM76.8125 69.25C71.0625 69.25 65.4375 71.5625 61.375 75.625L28.8125 108.187C24.5625 112.437 17.625 112.437 13.3125 108.187C9 103.937 9.0625 97 13.3125 92.75L44.375 61.6875C49.5625 56.5 51.75 49.1875 50.3125 42C49 35.3125 51.0625 28.5 55.875 23.6875L64.125 15.4375C68.0625 11.5 73.3125 9.5 78.5 9.5C82.1875 9.5 85.9375 10.5 89.1875 12.5L77.4375 24.25C72.0625 29.625 70.875 38.0625 74.5625 44.75L88.1875 69.3125H76.75L76.8125 69.25ZM101.75 52.9375L94.125 60.5625L89.375 52.0625L104.438 37C105.313 38.875 105.813 40.9375 105.813 43.0625C105.813 46.8125 104.375 50.375 101.688 53L101.75 52.9375Z" fill="white"/>
<path d="M25.625 91.125H25.5625C23 91.125 20.9375 93.25 20.9375 95.8125C20.9375 98.375 23.0625 100.5 25.625 100.5C28.1875 100.5 30.3125 98.375 30.3125 95.8125C30.3125 93.25 28.1875 91.125 25.625 91.125Z" fill="white"/>
</svg>
