<svg width="86" height="133" viewBox="0 0 86 133" fill="none" xmlns="http://www.w3.org/2000/svg">
<path d="M85.3225 127.031C82.5489 130.677 78.64 132.094 74.3216 132.702C66.6417 133.812 59.4929 131.641 52.4253 129.133C45.1265 126.549 37.8277 123.996 30.0343 123.182C27.8244 122.951 25.5983 122.87 23.3762 122.749C22.0016 122.672 20.5824 122.676 20.1809 120.946C19.7795 119.216 20.2093 117.454 21.9773 116.931C25.0427 116.024 28.2136 115.064 31.3724 114.958C42.3651 114.59 53.3741 114.578 64.375 114.428C64.7075 114.428 65.0359 114.399 65.5631 114.375C65.2873 110.3 64.8291 106.411 64.817 102.522C64.8048 99.1625 65.0884 95.8088 65.6644 92.4993C65.8873 91.1954 66.4482 89.9726 67.2912 88.9526C68.1343 87.9327 69.2301 87.1512 70.4695 86.686C73.0727 85.6408 74.6176 86.6617 74.5243 89.3921C74.0499 102.173 78.3684 113.447 85.3914 123.846C86.2835 125.127 86.1375 125.957 85.3225 127.031Z" fill="white"/>
<path d="M44.8631 128.003C44.8023 128.283 44.7455 128.558 44.6847 128.834H24.8888C23.9319 128.834 22.6708 128.834 22.9749 127.497C23.1695 126.662 24.1346 125.512 24.8888 125.398C26.7574 125.14 28.654 125.159 30.517 125.455C35.3179 126.2 40.0824 127.14 44.8631 128.003Z" fill="white"/>
<g clip-path="url(#clip0_160_2743)">
<path d="M62.3136 0V72.449L31.1568 41.5035L21.5 51.0966V43.3238H7.28814V65.2114L0 72.449V0H62.3136Z" fill="#FB4E4E"/>
<path d="M4.26644 83.3248C3.69707 83.3276 3.13377 83.2081 2.61473 82.9745C2.10309 82.7449 1.64193 82.4167 1.25772 82.0088C0.449778 81.1507 0 80.0176 0 78.8402C0 77.6628 0.449778 76.5297 1.25772 75.6716C1.64304 75.2659 2.10399 74.9391 2.61473 74.7095C3.13389 74.4765 3.69719 74.3576 4.26644 74.361C4.94308 74.3548 5.61004 74.5217 6.20373 74.8457C6.78377 75.1608 7.28497 75.6026 7.66989 76.1382L6.32015 76.8643C6.07248 76.5601 5.76233 76.3125 5.41062 76.1382C5.06777 75.9678 4.69119 75.8758 4.30824 75.8689C3.9253 75.862 3.54563 75.9403 3.19683 76.0982C2.86366 76.2513 2.56484 76.4699 2.31823 76.7408C2.06482 77.018 1.86555 77.34 1.73067 77.6902C1.58899 78.058 1.51742 78.4489 1.51966 78.8429C1.51302 79.6196 1.80013 80.3703 2.32369 80.945C2.57098 81.214 2.8689 81.4317 3.20047 81.5858C3.54955 81.7464 3.93055 81.8261 4.31489 81.8189C4.69923 81.8117 5.07695 81.7177 5.41972 81.544C5.76778 81.368 6.07464 81.1206 6.32015 80.8179L7.66989 81.544C7.28338 82.0777 6.78251 82.5186 6.20373 82.8347C5.61082 83.1613 4.94365 83.3301 4.26644 83.3248Z" fill="white"/>
<path d="M11.2389 83.3247C10.689 83.3299 10.1492 83.1774 9.68359 82.8854C9.20809 82.5874 8.817 82.1729 8.5476 81.6813C8.27821 81.1897 8.13949 80.6375 8.14467 80.0772C8.13859 79.2204 8.46445 78.3944 9.0542 77.7718C9.33303 77.4753 9.66818 77.2371 10.0401 77.0711C10.4797 76.8758 10.9604 76.7902 11.4406 76.8219C11.9207 76.8535 12.3859 77.0013 12.796 77.2526C13.2608 77.5463 13.6432 77.9529 13.9074 78.4344C14.148 78.876 14.289 79.3648 14.3204 79.8665C14.3518 80.3682 14.273 80.8707 14.0893 81.3388C13.9329 81.721 13.7072 82.0711 13.4236 82.3717C13.1449 82.6676 12.8105 82.9057 12.4395 83.0724C12.0621 83.2417 11.6526 83.3278 11.2389 83.3247ZM11.2389 81.818C11.5271 81.822 11.8096 81.7378 12.0484 81.5766C12.2881 81.4164 12.4828 81.1977 12.6141 80.9412C12.7522 80.6712 12.8242 80.3722 12.8242 80.069C12.8242 79.7658 12.7522 79.4669 12.6141 79.1968C12.4793 78.94 12.2815 78.7214 12.0393 78.5614C11.8038 78.4052 11.5271 78.3224 11.2443 78.3236C10.9579 78.3202 10.6773 78.4044 10.4403 78.5651C10.199 78.7268 10.003 78.9474 9.87096 79.2058C9.73051 79.4748 9.65807 79.7739 9.65995 80.0772C9.65602 80.3848 9.73051 80.6884 9.87641 80.9594C10.0124 81.2129 10.2101 81.4283 10.4512 81.5857C10.6855 81.738 10.9593 81.8188 11.2389 81.818Z" fill="white"/>
<path d="M15.21 83.1632V73.9053H16.7198V83.1632H15.21Z" fill="white"/>
<path d="M20.8328 83.3247C20.2829 83.3299 19.7431 83.1774 19.2775 82.8854C18.6218 82.4607 18.1342 81.822 17.898 81.0784C17.6618 80.3348 17.6916 79.5324 17.9824 78.8083C18.137 78.4245 18.3622 78.073 18.6463 77.7718C18.9255 77.4749 19.2613 77.2366 19.6341 77.0711C20.0737 76.8758 20.5543 76.7902 21.0345 76.8219C21.5146 76.8535 21.9799 77.0013 22.3899 77.2526C22.8571 77.5441 23.2421 77.9496 23.5087 78.4307C23.8566 79.0535 23.9967 79.7707 23.9087 80.4783C23.8207 81.1859 23.5092 81.8472 23.0193 82.3662C22.7415 82.6622 22.4076 82.9004 22.037 83.0669C21.6589 83.2382 21.2481 83.3262 20.8328 83.3247ZM20.8328 81.818C21.1216 81.822 21.4047 81.7378 21.6441 81.5766C21.8834 81.4158 22.078 81.1973 22.2098 80.9412C22.348 80.6712 22.42 80.3722 22.42 80.069C22.42 79.7658 22.348 79.4669 22.2098 79.1968C22.0744 78.9398 21.876 78.7213 21.6332 78.5614C21.3958 78.4056 21.1179 78.3226 20.8337 78.3226C20.5496 78.3226 20.2717 78.4056 20.0343 78.5614C19.7933 78.7237 19.5975 78.9441 19.4649 79.2022C19.325 79.4713 19.2532 79.7704 19.2557 80.0735C19.2508 80.3813 19.3253 80.6851 19.4722 80.9558C19.608 81.2105 19.8072 81.4262 20.0506 81.582C20.2828 81.735 20.5546 81.817 20.8328 81.818Z" fill="white"/>
<path d="M24.9033 83.1633V76.9914H26.4113V77.5359C26.63 77.3053 26.8938 77.1218 27.1863 76.9969C27.4788 76.8721 27.7939 76.8084 28.1121 76.8098C28.3426 76.8101 28.5717 76.8437 28.7925 76.9097L28.1976 78.4272C28.0485 78.3671 27.8892 78.3357 27.7283 78.3347C27.4941 78.3342 27.264 78.397 27.0625 78.5162C26.8652 78.6346 26.7022 78.8023 26.5896 79.0027C26.4693 79.2034 26.4064 79.4332 26.4077 79.6671V83.1633H24.9033Z" fill="white"/>
<path d="M7.74175 91.6281C6.92777 91.2775 6.07178 91.0334 5.19507 90.9019C4.68937 90.8172 4.23097 90.724 3.81987 90.6224L3.75438 90.6042C3.41427 90.5238 3.09817 90.3639 2.83212 90.1377C2.70409 90.0084 2.60536 89.8531 2.54259 89.6825C2.47983 89.5118 2.4545 89.3297 2.46831 89.1484C2.4678 88.9783 2.50243 88.8099 2.57003 88.6537C2.63763 88.4976 2.73676 88.357 2.86122 88.2408C3.1513 87.9626 3.49816 87.7502 3.87808 87.6181C4.30123 87.4629 4.74982 87.3884 5.20053 87.3985C5.6426 87.3924 6.08301 87.4536 6.50661 87.58C6.87765 87.6903 7.22665 87.8641 7.53802 88.0937C7.78992 88.2728 7.984 88.5214 8.09647 88.8089L10.3557 87.9957C10.1288 87.3605 9.73715 86.7968 9.22064 86.3619C8.67943 85.9034 8.05427 85.5538 7.37976 85.3327C6.67639 85.0967 5.93894 84.9777 5.19689 84.9805C4.32693 84.98 3.46685 85.1644 2.67386 85.5215C1.93226 85.8388 1.28328 86.3384 0.787499 86.9737C0.3081 87.5978 0.0553874 88.3658 0.0707909 89.152C0.0547955 89.7424 0.184084 90.3276 0.447336 90.8566C0.531265 91.013 0.63059 91.1608 0.743842 91.2977C1.23192 91.8826 1.8628 92.3321 2.57563 92.6029C3.42022 92.9347 4.30043 93.168 5.19871 93.2981C5.63799 93.3689 6.07104 93.4739 6.49388 93.6121C6.8712 93.7263 7.22187 93.9145 7.52528 94.1658C7.65491 94.2736 7.7584 94.4093 7.82802 94.5628C7.89764 94.7162 7.93158 94.8833 7.92729 95.0517C7.92846 95.2238 7.89528 95.3945 7.8297 95.5538C7.76412 95.713 7.66744 95.8577 7.54529 95.9793C7.26217 96.2606 6.91707 96.4719 6.53754 96.5965C6.10716 96.7457 5.6543 96.82 5.19871 96.8161C4.75516 96.8194 4.31383 96.7532 3.89081 96.6201C3.51975 96.5072 3.17088 96.3316 2.8594 96.1009C2.60705 95.9222 2.41286 95.6735 2.30095 95.3857L0.0507812 96.2134C0.278411 96.8428 0.668004 97.4012 1.18042 97.8327C1.72039 98.2881 2.34195 98.6374 3.0122 98.8619C3.71469 99.1026 4.45233 99.2253 5.19507 99.225C6.07136 99.2333 6.93943 99.0557 7.74175 98.704C8.48161 98.3889 9.12755 97.8887 9.6172 97.2518C10.0892 96.6243 10.3381 95.8579 10.3248 95.0734C10.3462 94.32 10.095 93.5841 9.6172 93.0004C9.10919 92.4018 8.46656 91.9316 7.74175 91.6281Z" fill="white"/>
<path d="M21.4815 91.9692C21.402 91.5595 21.2512 91.1669 21.0358 90.8092C20.6916 90.2311 20.2067 89.7491 19.626 89.4078C19.0348 89.0572 18.3583 88.8757 17.6705 88.8832C17.1661 88.8794 16.6663 88.979 16.202 89.1757C15.7376 89.3724 15.3187 89.6621 14.9711 90.0268L14.9601 84.2524H12.5645V92.4484V98.9544H14.9711V93.3905C14.9688 93.1213 15.0195 92.8543 15.1202 92.6045C15.1559 92.5122 15.199 92.4229 15.2494 92.3377C15.4334 92.0254 15.6946 91.7654 16.0079 91.5825C16.3296 91.3993 16.6935 91.3029 17.0639 91.3029C17.4342 91.3029 17.7982 91.3993 18.1199 91.5825C18.4336 91.7655 18.6953 92.0254 18.8802 92.3377C18.8857 92.3457 18.8906 92.3542 18.8948 92.3631C19.0764 92.6749 19.1701 93.0299 19.1658 93.3905V98.958H21.5615V92.7643C21.562 92.4972 21.5352 92.2308 21.4815 91.9692Z" fill="white"/>
<path d="M25.6125 85.7955C25.4982 85.6813 25.3619 85.5912 25.2119 85.5307C25.0619 85.4702 24.9012 85.4405 24.7394 85.4434C24.5759 85.4401 24.4134 85.4696 24.2616 85.53C24.1097 85.5905 23.9716 85.6808 23.8553 85.7955C23.6234 86.0279 23.4932 86.3425 23.4932 86.6705C23.4932 86.9985 23.6234 87.3131 23.8553 87.5455C23.9739 87.6598 24.1141 87.7496 24.2677 87.8094C24.4214 87.8692 24.5854 87.898 24.7503 87.894C24.9935 87.893 25.2309 87.8202 25.4328 87.6849C25.6347 87.5496 25.792 87.3578 25.8849 87.1335C25.9778 86.9093 26.0022 86.6626 25.9551 86.4245C25.9079 86.1865 25.7913 85.9676 25.6198 85.7955H25.6125ZM23.5243 89.1574V98.9599H25.9218V89.1574H23.5243Z" fill="white"/>
<path d="M37.0777 92.6174C37.0323 92.4558 36.9795 92.2979 36.9213 92.1436C36.7277 91.6198 36.4527 91.1298 36.1064 90.6914C35.6684 90.1349 35.1132 89.6813 34.4801 89.3626C33.8579 89.0584 33.1766 88.8934 32.4839 88.879C31.7911 88.8645 31.1035 89.0011 30.4691 89.2791C29.8782 89.5435 29.3454 89.9217 28.9011 90.3919C28.4498 90.8704 28.092 91.4287 27.846 92.0383C27.8169 92.1091 27.7896 92.1817 27.7642 92.2543C27.5615 92.8286 27.4593 93.4335 27.4622 94.0424C27.4526 94.9512 27.6815 95.8468 28.1262 96.64C28.5489 97.4049 29.1607 98.0492 29.9034 98.5116C30.6795 98.9887 31.5779 99.2301 32.4892 99.2063C33.4004 99.1824 34.285 98.8943 35.0349 98.3773C35.8138 97.842 36.4319 97.1053 36.8231 96.2461L34.3801 95.6852C34.1621 96.0267 33.8683 96.3137 33.5215 96.5239C33.1762 96.7296 32.7793 96.8329 32.3773 96.8216C32.0084 96.8229 31.6446 96.7358 31.3163 96.5678C30.9881 96.3998 30.7051 96.1556 30.4909 95.8558C30.2789 95.5597 30.1258 95.2257 30.0398 94.872H37.2196C37.3317 94.1188 37.2833 93.3506 37.0777 92.6174ZM29.958 93.0785C29.9743 92.9968 29.9962 92.9169 30.0198 92.8388C30.1086 92.5386 30.2489 92.2561 30.4345 92.0038C30.6589 91.6935 30.9489 91.4363 31.284 91.2505C31.6171 91.0636 31.9934 90.9672 32.3755 90.9709C32.7606 90.9691 33.1398 91.0666 33.476 91.2541C33.8141 91.4425 34.107 91.7021 34.3346 92.0147C34.5483 92.305 34.6977 92.6372 34.773 92.9895C34.773 93.0186 34.7857 93.0476 34.7912 93.0785H29.958Z" fill="white"/>
<path d="M38.6689 84.2561V98.9598H41.0646V84.2561H38.6689Z" fill="white"/>
<path d="M50.7002 84.2561V90.3899C50.3891 89.9487 49.9833 89.5822 49.5124 89.3171C49.0043 89.0379 48.4314 88.8976 47.8516 88.9105C47.164 88.9051 46.4827 89.0417 45.8506 89.3116C45.236 89.5748 44.6772 89.9524 44.2044 90.4244C43.9373 90.6897 43.7006 90.9838 43.4986 91.3012C43.3408 91.5439 43.2038 91.7996 43.0893 92.0654C42.8247 92.698 42.6885 93.3767 42.6885 94.0622C42.6885 94.7477 42.8247 95.4264 43.0893 96.059C43.623 97.2956 44.6112 98.281 45.8506 98.8128C46.4826 99.0834 47.1639 99.2206 47.8516 99.2158C48.432 99.2278 49.0052 99.0856 49.5124 98.8037C49.9811 98.5372 50.3864 98.1724 50.7002 97.7345V98.9598H53.0959V84.2561H50.7002ZM50.1545 92.6064C50.3735 93.0554 50.4874 93.5483 50.4874 94.0477C50.4874 94.5471 50.3735 95.04 50.1545 95.489C49.9437 95.909 49.6248 96.2655 49.2304 96.5219C48.8267 96.7808 48.355 96.9141 47.8752 96.9049C47.3915 96.9089 46.9166 96.7761 46.5055 96.5219C46.1138 96.282 45.7847 95.953 45.545 95.5617C45.3053 95.1705 45.1618 94.7282 45.1263 94.2709C45.0908 93.8137 45.1643 93.3546 45.3408 92.9312C45.5173 92.5078 45.7917 92.1321 46.1417 91.8349C46.2517 91.7399 46.3691 91.6537 46.4927 91.5771C46.9061 91.3198 47.3844 91.1857 47.8716 91.1905C48.35 91.1828 48.8201 91.316 49.2231 91.5735C49.509 91.7561 49.7562 91.9929 49.9508 92.2705C50.0282 92.3794 50.098 92.4935 50.1599 92.6118L50.1545 92.6064Z" fill="white"/>
<path d="M60.6454 93.6575C60.1252 93.3777 59.581 93.145 59.0192 92.9623C58.7645 92.8842 58.4971 92.8116 58.2188 92.7462C57.9675 92.6921 57.7267 92.5976 57.5057 92.4667C57.4105 92.4101 57.3328 92.3286 57.2808 92.231C57.2289 92.1334 57.2047 92.0234 57.211 91.913C57.1998 91.6833 57.2795 91.4584 57.4329 91.2868C57.5407 91.1724 57.6715 91.0821 57.8168 91.0217C57.8818 90.9941 57.9486 90.9711 58.0168 90.9528C58.2799 90.8856 58.5517 90.8593 58.8227 90.8747C59.0494 90.887 59.2722 90.9386 59.4812 91.0272L59.5358 91.0526C59.717 91.1313 59.8866 91.2346 60.0396 91.3594C60.1926 91.4806 60.3226 91.6281 60.4235 91.795L61.333 91.2505L62.3135 90.6732C61.9336 90.0845 61.3987 89.6116 60.7673 89.3063C60.0996 88.9792 59.3645 88.8125 58.6208 88.8198C58.0027 88.8153 57.3911 88.9461 56.829 89.2028C56.293 89.4429 55.8291 89.8183 55.4829 90.292C55.2586 90.5994 55.1041 90.9519 55.03 91.3249C54.987 91.537 54.9657 91.7529 54.9663 91.9693C54.9517 92.5112 55.1237 93.0418 55.4538 93.4724C55.7989 93.9045 56.2389 94.2517 56.7399 94.4871C57.2903 94.7539 57.873 94.9486 58.4734 95.0662C58.7099 95.1243 58.9525 95.1848 59.2011 95.2477C59.4293 95.3051 59.6434 95.4082 59.8304 95.5508C59.9135 95.6188 59.9793 95.7053 60.0226 95.8034C60.0659 95.9015 60.0855 96.0084 60.0797 96.1154C60.0839 96.218 60.0674 96.3203 60.0312 96.4164C59.9949 96.5124 59.9396 96.6002 59.8686 96.6745C59.7164 96.8245 59.5287 96.9337 59.3229 96.9922C59.0923 97.0618 58.8526 97.0967 58.6117 97.0956C58.3343 97.0989 58.0589 97.049 57.8004 96.9486C57.5716 96.8616 57.3579 96.739 57.1673 96.5856C57.0175 96.4688 56.8879 96.3284 56.7835 96.1699L54.7607 97.0321C54.9577 97.45 55.2461 97.8185 55.6048 98.1104C55.9824 98.4164 56.4093 98.6564 56.8672 98.8202C57.3426 98.9939 57.8408 99.0979 58.3461 99.1287C59.0002 99.1855 59.6583 99.0846 60.2652 98.8347C60.8409 98.6039 61.3472 98.2288 61.735 97.7455C62.1129 97.2749 62.3142 96.6875 62.3044 96.0845C62.33 95.5701 62.1735 95.0632 61.8623 94.6523C61.5298 94.2405 61.1155 93.9018 60.6454 93.6575Z" fill="white"/>
<path d="M26.4059 9.39451L44.2035 12.7637C44.4017 12.8011 44.5805 12.9064 44.7092 13.0614C44.9057 13.2719 45.073 13.4789 45.2367 13.6786C47.0558 16.0203 47.7834 19.1643 47.6561 22.116C47.5288 25.0676 46.4591 27.9248 44.6801 29.5513C44.5382 29.6856 44.3927 29.8055 44.2544 29.9144C44.1315 30.0089 43.9861 30.0702 43.8324 30.0923L26.1439 33.7845C25.9184 33.8287 25.6844 33.7826 25.4925 33.6563C25.3007 33.53 25.1662 33.3336 25.118 33.1093C25.1046 33.0497 25.0984 32.9888 25.0998 32.9277L25.3108 10.2404C25.3126 10.108 25.3442 9.97758 25.4033 9.85898C25.4625 9.74038 25.5477 9.6366 25.6525 9.55534C25.7574 9.47407 25.8792 9.41742 26.009 9.38958C26.1388 9.36173 26.2732 9.36342 26.4022 9.39451H26.4059ZM43.5705 14.4228L27.0535 11.2969L26.857 31.8531L43.3267 28.415C43.3813 28.3714 43.4322 28.3242 43.4832 28.277C44.9202 26.9518 45.7752 24.5884 45.8989 22.0433C46.0226 19.4983 45.3859 16.75 43.8361 14.7496C43.7451 14.6334 43.6578 14.5281 43.5705 14.4228Z" fill="white"/>
<path fill-rule="evenodd" clip-rule="evenodd" d="M26.1798 10.2402L44.0356 13.6239C48.0994 18.0024 47.4081 26.3744 43.7191 29.2353L25.9688 32.9384L26.1834 10.2511L26.1798 10.2402Z" fill="#1C364F"/>
<path fill-rule="evenodd" clip-rule="evenodd" d="M44.7058 14.4445C45.088 14.9743 45.4182 15.5396 45.6917 16.1327L26.126 15.8894L26.1587 12.2952L44.7131 14.4445H44.7058Z" fill="#FB4E4E"/>
<path fill-rule="evenodd" clip-rule="evenodd" d="M45.6582 18.2494C46.7787 22.3519 45.8583 26.527 43.3625 28.6509L26.4453 32.1798L26.5035 25.6956C33.3177 26.527 40.6922 25.2527 44.494 18.4963C45.0324 17.5269 45.3053 16.9714 45.6582 18.2494Z" fill="#696E73"/>
<path d="M22.9782 9.89895C23.4747 9.68219 23.9948 9.5238 24.528 9.42698C25.3558 9.28707 26.203 9.31125 27.0214 9.49813C27.8397 9.68501 28.6132 10.0309 29.2976 10.5161C30.8035 11.6053 31.9742 13.0929 32.6774 14.8111C33.1394 15.8887 33.4716 17.0172 33.667 18.173C34.2027 21.2544 33.8883 24.4233 32.7574 27.3401C31.6478 30.1211 29.8033 32.3466 27.4895 33.3523C26.9929 33.5724 26.4712 33.7309 25.936 33.8243C25.1089 33.9651 24.262 33.9414 23.4441 33.7544C22.6262 33.5675 21.8533 33.2211 21.1701 32.7351C19.6624 31.6494 18.4912 30.1623 17.7903 28.4438C17.3218 27.3636 16.9847 26.2313 16.7861 25.071C16.2562 21.9894 16.5756 18.822 17.7102 15.9075C18.8198 13.1265 20.6644 10.9046 22.9782 9.89532V9.89895ZM24.8264 11.1479C24.4307 11.2165 24.0447 11.3323 23.6767 11.4928C21.8104 12.306 20.2933 14.1757 19.3474 16.5429C18.3309 19.1588 18.0467 22.0013 18.5252 24.766C18.6976 25.7885 18.9919 26.7868 19.4019 27.7395C19.972 29.1571 20.927 30.388 22.1596 31.2938C22.6563 31.6501 23.2185 31.905 23.8141 32.0439C24.4097 32.1829 25.0269 32.2031 25.6304 32.1034C26.0267 32.0285 26.4127 31.9066 26.78 31.7403C28.6464 30.9271 30.1635 29.0574 31.1057 26.6939C32.1234 24.0783 32.4089 21.2358 31.9316 18.4707C31.7585 17.4468 31.4629 16.4473 31.0512 15.4936C30.4822 14.0763 29.5269 12.8463 28.2935 11.9429C27.7977 11.5863 27.2362 11.3309 26.6412 11.1913C26.0462 11.0518 25.4295 11.0308 24.8264 11.1297V11.1479Z" fill="white"/>
<path fill-rule="evenodd" clip-rule="evenodd" d="M23.3274 10.6978C27.5076 8.88251 31.7496 12.2989 32.7865 18.3219C33.8233 24.345 31.3021 30.7384 27.1292 32.5573C22.9563 34.3762 18.707 30.9562 17.6701 24.9332C16.6333 18.9101 19.1581 12.5312 23.3419 10.7123L23.3274 10.6978Z" fill="#1C364F"/>
<path fill-rule="evenodd" clip-rule="evenodd" d="M32.7895 23.4084C32.7544 24.4164 32.6266 25.419 32.4075 26.4036L17.4912 20.66C17.6823 19.6952 17.9649 18.7506 18.3353 17.8391L32.7967 23.4084H32.7895Z" fill="#FB4E4E"/>
<path d="M23.3273 11.9214C23.7438 11.7371 24.1811 11.6042 24.6298 11.5256C25.3246 11.4085 26.0357 11.4293 26.7225 11.5869C27.4092 11.7445 28.058 12.0358 28.6317 12.4442C29.8847 13.3484 30.8589 14.5847 31.444 16.013C31.8257 16.9017 32.0993 17.833 32.2589 18.7867C32.6995 21.3272 32.4366 23.9396 31.4985 26.3419C30.5817 28.6473 29.0464 30.4953 27.1328 31.3339C26.7155 31.5159 26.2784 31.6487 25.8304 31.7296C25.1355 31.8464 24.4245 31.8254 23.7378 31.6678C23.0511 31.5102 22.4023 31.2191 21.8284 30.8111C20.5731 29.9098 19.5952 28.6762 19.0053 27.2495C18.6301 26.3558 18.3615 25.4212 18.2049 24.4649C17.7576 21.9272 18.0091 19.316 18.9325 16.9097C19.8529 14.6043 21.3846 12.76 23.2982 11.9214H23.3273ZM24.9281 13.2429C24.6177 13.2979 24.3148 13.3893 24.0259 13.5152C22.5451 14.1578 21.3409 15.6499 20.5878 17.5415C19.7686 19.6453 19.5396 21.9323 19.9257 24.1563C20.0635 24.9777 20.2992 25.7797 20.6279 26.5452C21.0768 27.6727 21.833 28.6524 22.8107 29.3734C23.5931 29.9345 24.5665 30.163 25.5175 30.0088C25.8273 29.9559 26.1292 29.8644 26.4161 29.7365C27.8968 29.0939 29.1047 27.6017 29.8577 25.7138C30.6754 23.6083 30.9042 21.3206 30.5199 19.0953C30.3828 18.2793 30.1495 17.4823 29.825 16.721C29.373 15.5952 28.6175 14.6163 27.6421 13.8928C26.8598 13.3317 25.8863 13.1032 24.9354 13.2574L24.9281 13.2429Z" fill="white"/>
<path fill-rule="evenodd" clip-rule="evenodd" d="M23.6621 12.7272C27.071 11.246 30.5309 14.0342 31.3858 18.9536C32.2408 23.873 30.1852 29.0647 26.7763 30.5351C23.3674 32.0054 19.9112 29.2317 19.0563 24.3123C18.2013 19.3929 20.2677 14.2012 23.6621 12.7272Z" fill="#696E73"/>
<path d="M35.777 17.5848C36.063 17.4598 36.3708 17.3922 36.683 17.386C36.9951 17.3797 37.3054 17.435 37.5961 17.5485C37.8866 17.6583 38.1522 17.825 38.3771 18.0388C38.6021 18.2525 38.7819 18.5091 38.906 18.7933C39.03 19.0775 39.0959 19.3835 39.0996 19.6935C39.1033 20.0035 39.0449 20.3111 38.9277 20.5981C38.6926 21.1809 38.2373 21.6481 37.6601 21.8987C37.0829 22.1494 36.4301 22.1634 35.8425 21.9378C35.552 21.828 35.2865 21.6613 35.0615 21.4475C34.8366 21.2338 34.6568 20.9772 34.5327 20.693C34.4086 20.4088 34.3428 20.1028 34.339 19.7928C34.3353 19.4828 34.3938 19.1752 34.511 18.8882C34.7434 18.3035 35.1987 17.8348 35.777 17.5848ZM37.1013 18.7938C36.8483 18.6907 36.5649 18.6907 36.3119 18.7938C36.0608 18.9037 35.8624 19.1068 35.7589 19.3601C35.71 19.4841 35.6861 19.6164 35.6885 19.7496C35.691 19.8828 35.7197 20.0142 35.7731 20.1362C35.8265 20.2583 35.9035 20.3687 35.9997 20.461C36.0959 20.5534 36.2094 20.6259 36.3337 20.6744C36.5879 20.7777 36.8726 20.7777 37.1268 20.6744C37.3779 20.5657 37.5754 20.362 37.6761 20.108C37.726 19.9842 37.7507 19.8517 37.7487 19.7182C37.7468 19.5847 37.7182 19.453 37.6647 19.3307C37.6112 19.2084 37.5338 19.0979 37.4371 19.0057C37.3404 18.9135 37.2262 18.8415 37.1013 18.7938Z" fill="white"/>
<path fill-rule="evenodd" clip-rule="evenodd" d="M25.9657 22.7584C25.9657 22.7584 15.4151 26.0259 13.9599 34.2782C12.5046 42.5304 12.1408 56.6968 13.2323 58.5121C14.3237 60.3274 13.8435 59.2382 15.3569 58.5121C16.8704 57.786 16.8122 37.6401 19.759 34.2782C22.7059 30.9163 26.1403 30.7674 26.1403 30.7674C27.4521 30.2708 28.5997 29.4198 29.4546 28.3096C30.6673 26.5435 31.4086 24.498 31.6084 22.3663C31.7721 20.3913 25.9657 22.7584 25.9657 22.7584Z" fill="white"/>
<path d="M14.4653 33.2942C14.1015 33.6573 13.9378 34.3072 13.7814 34.9316C13.5849 35.6977 13.3957 36.4383 12.8536 37.0119C12.6369 37.2779 12.3626 37.4916 12.0514 37.6368C11.7401 37.782 11.4 37.8551 11.0564 37.8506C10.7198 37.8304 10.3985 37.7031 10.1396 37.4875C9.89799 37.2841 9.71366 37.0213 9.60481 36.7251C9.48596 36.365 9.44782 35.9833 9.49309 35.6069C9.53835 35.2305 9.66591 34.8686 9.86676 34.5468C10.2426 33.9524 10.7537 33.4548 11.3584 33.0945C12.0819 32.6455 12.8594 32.2893 13.6722 32.0344C13.8366 31.9797 14.0147 31.9818 14.1778 32.0405C14.3408 32.0991 14.4793 32.2108 14.571 32.3576C14.6626 32.5044 14.702 32.6778 14.6828 32.8497C14.6637 33.0216 14.5871 33.182 14.4653 33.3051V33.2942ZM12.2825 34.5613L12.3552 34.2781L12.2024 34.3725C11.8084 34.6037 11.4725 34.9216 11.2201 35.3019C11.1325 35.4279 11.0737 35.5716 11.0479 35.7228C11.0221 35.874 11.03 36.0291 11.071 36.1769C11.0849 36.2241 11.1113 36.2667 11.1474 36.3003C11.1579 36.3046 11.1696 36.3046 11.1801 36.3003C11.3002 36.3003 11.4821 36.2059 11.7295 35.9373C12.0132 35.5169 12.2019 35.04 12.2825 34.5395V34.5613Z" fill="white"/>
<path fill-rule="evenodd" clip-rule="evenodd" d="M13.912 32.757C12.9333 33.759 13.1298 35.596 12.2857 36.4855C10.8887 37.9668 9.66628 36.4202 10.5394 34.9208C11.0779 33.9986 12.3585 33.258 13.912 32.7424V32.757Z" fill="#424242"/>
<path fill-rule="evenodd" clip-rule="evenodd" d="M36.0325 18.1986C36.3393 18.0694 36.6776 18.0337 37.0047 18.096C37.3318 18.1582 37.6332 18.3156 37.8709 18.5484C38.1085 18.7811 38.2719 19.0788 38.3405 19.404C38.409 19.7292 38.3796 20.0674 38.2561 20.3759C38.1325 20.6845 37.9202 20.9497 37.6459 21.1382C37.3716 21.3267 37.0477 21.43 36.7147 21.4351C36.3817 21.4403 36.0547 21.347 35.7747 21.1671C35.4947 20.9872 35.2743 20.7287 35.1412 20.4241C34.9638 20.011 34.9581 19.5445 35.1252 19.1272C35.2924 18.7099 35.6187 18.3759 36.0325 18.1986Z" fill="#1C364F"/>
<path d="M29.2146 9.45973L38.3862 7.07809C38.9742 6.8811 39.6079 6.86466 40.2053 7.03089C40.5006 7.12344 40.7673 7.28964 40.9802 7.51375C41.1841 7.7349 41.3325 8.00117 41.4132 8.29069C41.5563 8.89334 41.5184 9.52472 41.304 10.106L38.0297 20.1118C37.9592 20.3677 37.8133 20.5965 37.6109 20.7687C37.4085 20.9409 37.159 21.0485 36.8946 21.0775C36.7067 21.0975 36.5167 21.0752 36.3386 21.0124C36.1604 20.9496 35.9986 20.8478 35.865 20.7144C35.6857 20.5301 35.5651 20.2969 35.5184 20.0443C35.4718 19.7916 35.5013 19.5308 35.6031 19.2949L38.7864 9.71387C38.8655 9.53627 38.9099 9.3453 38.9174 9.15113C38.8847 9.08215 38.9174 9.21648 38.8847 9.27094L31.4702 11.0463L26.5078 10.1604L29.2146 9.45973ZM39.8015 8.20719C39.741 8.18795 39.6789 8.17458 39.6159 8.16725C39.8125 8.26856 39.967 8.43564 40.0525 8.63922C40.2162 9.00228 40.1689 9.48151 39.9652 10.0914L36.76 19.7233C36.7345 19.7886 36.7382 19.8286 36.76 19.8467C36.76 19.8467 36.7928 19.8104 36.8255 19.7269L40.0998 9.73202C40.2338 9.38517 40.2666 9.00754 40.1944 8.64285C40.1678 8.54017 40.1166 8.44547 40.0452 8.36693C39.9737 8.29403 39.8848 8.24033 39.7869 8.21082L39.8015 8.20719Z" fill="white"/>
<path d="M29.3672 10.0552L38.5571 7.67358C40.4707 7.12536 41.2456 8.27625 40.7072 9.92815L37.4329 19.9231C37.0691 20.9396 35.8467 20.3987 36.1886 19.5055L39.3756 9.90636C39.6922 8.96968 39.5685 8.54491 38.7499 8.69013L31.4737 10.4364L29.3817 10.0734L29.3672 10.0552Z" fill="#1C364F"/>
<path d="M40.8345 9.4126C40.8046 9.58728 40.762 9.75958 40.7072 9.92814C39.6109 13.261 38.5194 16.5926 37.4329 19.923C37.0691 20.9396 35.8466 20.3986 36.1886 19.5055L39.3756 9.90635C39.4312 9.74763 39.475 9.58502 39.5066 9.41986C39.5635 9.54871 39.6568 9.65826 39.775 9.73516C39.8932 9.81207 40.0313 9.85302 40.1724 9.85302C40.3135 9.85302 40.4515 9.81207 40.5697 9.73516C40.688 9.65826 40.7812 9.54871 40.8381 9.41986L40.8345 9.4126Z" fill="#696E73"/>
<path fill-rule="evenodd" clip-rule="evenodd" d="M11.2415 34.7938C10.9332 35.1018 10.7187 35.4908 10.623 35.9156C10.623 36.5909 11.3689 36.4565 11.4198 35.9156C11.4525 35.5525 11.4889 35.3638 11.5289 35.0152C11.5617 34.7284 11.5544 34.438 11.2415 34.7829V34.7938Z" fill="#FB4E4E"/>
<path fill-rule="evenodd" clip-rule="evenodd" d="M15.3853 27.8219C14.685 28.0191 14.0452 28.3879 13.524 28.8948C13.0395 29.5175 13.7657 29.8364 14.2155 29.4142C14.626 28.9953 15.0615 28.6014 15.5196 28.2347C15.7971 28.0485 15.9117 27.705 15.3853 27.8219Z" fill="white"/>
<path fill-rule="evenodd" clip-rule="evenodd" d="M21.3399 35.8381C21.0159 36.2753 20.8066 36.7864 20.7309 37.3249C20.7301 37.9152 21.3066 37.7717 21.3789 37.316C21.4295 36.8801 21.5064 36.4477 21.6091 36.0211C21.6878 35.7839 21.5979 35.528 21.3399 35.8381Z" fill="white"/>
<path fill-rule="evenodd" clip-rule="evenodd" d="M16.1607 35.0842C15.7059 35.6832 15.2002 37.11 15.233 37.7164C15.2875 38.7402 16.2771 38.4425 16.3608 37.6474C16.4117 36.886 16.5076 36.1283 16.6482 35.3783C16.7646 34.9608 16.5827 34.5251 16.1607 35.0842Z" fill="#FB4E4E"/>
<path opacity="0.68" fill-rule="evenodd" clip-rule="evenodd" d="M24.4959 26.9262C24.4959 26.9262 16.5939 29.4458 15.4006 33.8243C14.2073 38.2027 13.7344 44.6506 14.3092 51.2509C14.6221 54.8379 15.0368 50.5248 15.0368 50.5248C15.0368 50.5248 15.568 40.6025 16.492 37.7489C19.2679 29.0356 20.6068 31.94 25.2235 29.1046C33.2965 24.1307 24.4959 26.9262 24.4959 26.9262Z" fill="#FB4E4E"/>
</g>
<path d="M0 110.093H62.3136L51.1773 103.395H9.31424L0 110.093Z" fill="#FB4E4E"/>
<defs>
<clipPath id="clip0_160_2743">
<rect width="62.3136" height="103.54" fill="white"/>
</clipPath>
</defs>
</svg>
