<svg width="110" height="122" viewBox="0 0 110 122" fill="none" xmlns="http://www.w3.org/2000/svg">
<path d="M89.75 18.8125H84.6875V17.25C84.6875 7.75 77 0.0625 67.5 0.0625H17.5C8 0.0625 0.3125 7.75 0.3125 17.25V29.75C0.3125 39.25 8 46.9375 17.5 46.9375H67.5C77 46.9375 84.6875 39.25 84.6875 29.75V28.1875H89.75C95.5625 28.1875 100.312 32.9375 100.312 38.75V42.25C100.312 47.25 96.75 51.625 91.8125 52.625L53.8125 60.1875C46.125 61.75 40.25 67.6875 38.4375 75.0625H36.25C30.25 75.0625 25.3125 80 25.3125 86V104.75C25.3125 114.25 33 121.938 42.5 121.938C52 121.938 59.6875 114.25 59.6875 104.75V86C59.6875 80 54.75 75.0625 48.75 75.0625H48.4375C49.875 72.25 52.4375 70.0625 55.6875 69.375L93.6875 61.8125C103 59.9375 109.688 51.75 109.688 42.25V38.75C109.688 27.75 100.75 18.8125 89.75 18.8125ZM75.3125 29.75C75.3125 34.0625 71.8125 37.5625 67.5 37.5625H17.5C13.1875 37.5625 9.6875 34.0625 9.6875 29.75V17.25C9.6875 12.9375 13.1875 9.4375 17.5 9.4375H67.5C71.8125 9.4375 75.3125 12.9375 75.3125 17.25V29.75ZM50.3125 86V104.75C50.3125 109.062 46.8125 112.562 42.5 112.562C38.1875 112.562 34.6875 109.062 34.6875 104.75V86C34.6875 85.125 35.375 84.4375 36.25 84.4375H48.75C49.625 84.4375 50.3125 85.125 50.3125 86Z" fill="white"/>
</svg>
