<svg width="30" height="31" viewBox="0 0 30 31" fill="none" xmlns="http://www.w3.org/2000/svg">
<path d="M21.675 7.60186C21.3783 7.60186 21.0883 7.68983 20.8416 7.85465C20.595 8.01947 20.4027 8.25374 20.2892 8.52783C20.1756 8.80192 20.1459 9.10352 20.2038 9.39449C20.2617 9.68546 20.4046 9.95274 20.6143 10.1625C20.8241 10.3723 21.0914 10.5152 21.3824 10.573C21.6733 10.6309 21.9749 10.6012 22.249 10.4877C22.5231 10.3741 22.7574 10.1819 22.9222 9.93521C23.087 9.68854 23.175 9.39853 23.175 9.10186C23.175 8.70403 23.017 8.3225 22.7357 8.0412C22.4544 7.75989 22.0728 7.60186 21.675 7.60186ZM27.425 10.6269C27.4007 9.58973 27.2064 8.56361 26.85 7.58936C26.5322 6.75577 26.0375 6.00095 25.4 5.37686C24.781 4.73614 24.0245 4.24458 23.1875 3.93936C22.2158 3.57206 21.1886 3.37337 20.15 3.35186C18.825 3.27686 18.4 3.27686 15 3.27686C11.6 3.27686 11.175 3.27686 9.85 3.35186C8.81144 3.37337 7.78418 3.57206 6.8125 3.93936C5.9771 4.24767 5.22117 4.73881 4.6 5.37686C3.95928 5.99583 3.46772 6.7524 3.1625 7.58936C2.7952 8.56103 2.59651 9.5883 2.575 10.6269C2.5 11.9519 2.5 12.3769 2.5 15.7769C2.5 19.1769 2.5 19.6019 2.575 20.9269C2.59651 21.9654 2.7952 22.9927 3.1625 23.9644C3.46772 24.8013 3.95928 25.5579 4.6 26.1769C5.22117 26.8149 5.9771 27.306 6.8125 27.6144C7.78418 27.9817 8.81144 28.1803 9.85 28.2019C11.175 28.2769 11.6 28.2769 15 28.2769C18.4 28.2769 18.825 28.2769 20.15 28.2019C21.1886 28.1803 22.2158 27.9817 23.1875 27.6144C24.0245 27.3091 24.781 26.8176 25.4 26.1769C26.0403 25.5551 26.5354 24.7996 26.85 23.9644C27.2064 22.9901 27.4007 21.964 27.425 20.9269C27.425 19.6019 27.5 19.1769 27.5 15.7769C27.5 12.3769 27.5 11.9519 27.425 10.6269ZM25.175 20.7769C25.1659 21.5703 25.0222 22.3565 24.75 23.1019C24.5504 23.6458 24.2298 24.1374 23.8125 24.5394C23.4071 24.9525 22.9165 25.2724 22.375 25.4769C21.6296 25.749 20.8435 25.8928 20.05 25.9019C18.8 25.9644 18.3375 25.9769 15.05 25.9769C11.7625 25.9769 11.3 25.9769 10.05 25.9019C9.22611 25.9173 8.40574 25.7904 7.625 25.5269C7.10723 25.312 6.63919 24.9928 6.25 24.5894C5.83511 24.1878 5.51855 23.6958 5.325 23.1519C5.01982 22.3958 4.85055 21.5918 4.825 20.7769C4.825 19.5269 4.75 19.0644 4.75 15.7769C4.75 12.4894 4.75 12.0269 4.825 10.7769C4.8306 9.96567 4.97869 9.16179 5.2625 8.40186C5.48256 7.87424 5.82033 7.40393 6.25 7.02686C6.62977 6.59707 7.09911 6.25573 7.625 6.02686C8.38694 5.75191 9.19 5.6082 10 5.60186C11.25 5.60186 11.7125 5.52686 15 5.52686C18.2875 5.52686 18.75 5.52686 20 5.60186C20.7935 5.61096 21.5796 5.75466 22.325 6.02686C22.893 6.23767 23.4029 6.58041 23.8125 7.02686C24.2221 7.41083 24.5422 7.88027 24.75 8.40186C25.0278 9.16302 25.1716 9.96658 25.175 10.7769C25.2375 12.0269 25.25 12.4894 25.25 15.7769C25.25 19.0644 25.2375 19.5269 25.175 20.7769ZM15 9.36436C13.7323 9.36683 12.4937 9.74501 11.4408 10.4511C10.3879 11.1572 9.56797 12.1596 9.08454 13.3315C8.60111 14.5035 8.4759 15.7924 8.72474 17.0355C8.97358 18.2786 9.5853 19.42 10.4826 20.3156C11.3799 21.2111 12.5225 21.8206 13.7661 22.067C15.0096 22.3135 16.2983 22.1857 17.4693 21.7C18.6403 21.2143 19.6411 20.3924 20.3452 19.3381C21.0492 18.2839 21.425 17.0446 21.425 15.7769C21.4267 14.9332 21.2615 14.0976 20.939 13.3181C20.6166 12.5385 20.1432 11.8304 19.5461 11.2344C18.949 10.6385 18.2399 10.1665 17.4597 9.84552C16.6796 9.52458 15.8436 9.36106 15 9.36436ZM15 19.9394C14.1767 19.9394 13.372 19.6952 12.6874 19.2378C12.0029 18.7805 11.4694 18.1304 11.1544 17.3698C10.8393 16.6092 10.7569 15.7722 10.9175 14.9648C11.0781 14.1573 11.4745 13.4157 12.0567 12.8335C12.6388 12.2514 13.3805 11.8549 14.1879 11.6943C14.9954 11.5337 15.8323 11.6162 16.5929 11.9312C17.3535 12.2463 18.0036 12.7798 18.461 13.4643C18.9184 14.1488 19.1625 14.9536 19.1625 15.7769C19.1625 16.3235 19.0548 16.8648 18.8456 17.3698C18.6365 17.8748 18.3299 18.3337 17.9433 18.7202C17.5568 19.1067 17.0979 19.4133 16.5929 19.6225C16.0879 19.8317 15.5466 19.9394 15 19.9394Z" fill="white"/>
</svg>
