<svg width="30" height="31" viewBox="0 0 30 31" fill="none" xmlns="http://www.w3.org/2000/svg">
<path d="M24.835 4.05811H5.16504C4.125 4.05811 3.28125 4.90186 3.28125 5.94189V25.6118C3.28125 26.6519 4.125 27.4956 5.16504 27.4956H24.835C25.875 27.4956 26.7188 26.6519 26.7188 25.6118V5.94189C26.7188 4.90186 25.875 4.05811 24.835 4.05811ZM24.835 25.6206C11.7158 25.6177 5.15625 25.6147 5.15625 25.6118C5.15918 12.4927 5.16211 5.93311 5.16504 5.93311C18.2842 5.93604 24.8438 5.93896 24.8438 5.94189C24.8408 19.061 24.8379 25.6206 24.835 25.6206ZM6.75586 12.8442H10.2334V24.0298H6.75586V12.8442ZM8.49609 11.3149C9.60645 11.3149 10.5117 10.4126 10.5117 9.29932C10.5117 9.03462 10.4596 8.77252 10.3583 8.52797C10.257 8.28342 10.1085 8.06122 9.92136 7.87405C9.73419 7.68689 9.51199 7.53842 9.26744 7.43712C9.02289 7.33583 8.76079 7.28369 8.49609 7.28369C8.2314 7.28369 7.96929 7.33583 7.72475 7.43712C7.4802 7.53842 7.258 7.68689 7.07083 7.87405C6.88366 8.06122 6.73519 8.28342 6.6339 8.52797C6.5326 8.77252 6.48047 9.03462 6.48047 9.29932C6.47754 10.4126 7.37988 11.3149 8.49609 11.3149ZM15.8877 18.4956C15.8877 17.0366 16.166 15.6245 17.9736 15.6245C19.7549 15.6245 19.7812 17.2915 19.7812 18.5894V24.0298H23.2559V17.895C23.2559 14.8833 22.6055 12.5659 19.0869 12.5659C17.3965 12.5659 16.2627 13.4946 15.7969 14.3735H15.75V12.8442H12.4131V24.0298H15.8877V18.4956Z" fill="white"/>
</svg>
